<svg viewBox="-10 0 1044 1024"><path fill="currentColor" d="M0 592h1024v176H0V592zm32 32v112h960V624H32zm880-32L768 288H272L112 592H80l176-336h528l160 336h-32zM48 656h16v48H48v-48zm912 0h16v48h-16v-48zm-848 0h16v16h-16v-16zm784 32h16v16h-16v-16zm-32 0h16v16h-16v-16zm-32 0h16v16h-16v-16zm-32 0h16v16h-16v-16zm96-32h16v16h-16v-16zm-32 0h16v16h-16v-16zm-32 0h16v16h-16v-16zm-32 0h16v16h-16v-16zm-32 32h16v16h-16v-16zm-32 0h16v16h-16v-16zm-32 0h16v16h-16v-16zm-32 0h16v16h-16v-16zm-32 0h16v16h-16v-16zm128-32h16v16h-16v-16zm-32 0h16v16h-16v-16zm-32 0h16v16h-16v-16zm-32 0h16v16h-16v-16zm-32 0h16v16h-16v-16zm-32 32h16v16h-16v-16zm-32 0h16v16h-16v-16zm-32 0h16v16h-16v-16zm-80 0h16v16h-16v-16zm-32 0h16v16h-16v-16zm176-32h16v16h-16v-16zm-32 0h16v16h-16v-16zm-32 0h16v16h-16v-16zm-80 0h16v16h-16v-16zm-32 0h16v16h-16v-16zm-32 32h16v16h-16v-16zm-32 0h16v16h-16v-16zm-32 0h16v16h-16v-16zm-32 0h16v16h-16v-16zm-32 0h16v16h-16v-16zm128-32h16v16h-16v-16zm-32 0h16v16h-16v-16zm-32 0h16v16h-16v-16zm-32 0h16v16h-16v-16zm-32 0h16v16h-16v-16zm-32 32h16v16h-16v-16zm-32 0h16v16h-16v-16zm-32 0h16v16h-16v-16zm-32 0h16v16h-16v-16zm-32 0h16v16h-16v-16zm128-32h16v16h-16v-16zm-32 0h16v16h-16v-16zm-32 0h16v16h-16v-16zm-32 0h16v16h-16v-16z"/></svg>
