<svg viewBox="-10 0 1044 1024"><path fill="currentColor" d="m80 528 176-336h528l160 336h80v304H0V528h80zm32 0h800L768 224H272zm-80 32v240h960V560H32zm864 128h16v16h-16v-16zm-32 0h16v16h-16v-16zm-32 0h16v16h-16v-16zm-32 0h16v16h-16v-16zm96-32h16v16h-16v-16zm-32 0h16v16h-16v-16zm-32 0h16v16h-16v-16zm-32 0h16v16h-16v-16zm-32 32h16v16h-16v-16zm-32 0h16v16h-16v-16zm-32 0h16v16h-16v-16zm-32 0h16v16h-16v-16zm-32 0h16v16h-16v-16zm128-32h16v16h-16v-16zm-32 0h16v16h-16v-16zm-32 0h16v16h-16v-16zm-32 0h16v16h-16v-16zm-32 0h16v16h-16v-16zm-32 32h16v16h-16v-16zm-32 0h16v16h-16v-16zm-32 0h16v16h-16v-16zm-80 0h16v16h-16v-16zm-32 0h16v16h-16v-16zm176-32h16v16h-16v-16zm-32 0h16v16h-16v-16zm-32 0h16v16h-16v-16zm-80 0h16v16h-16v-16zm-32 0h16v16h-16v-16zm-32 32h16v16h-16v-16zm-32 0h16v16h-16v-16zm-32 0h16v16h-16v-16zm-32 0h16v16h-16v-16zm-32 0h16v16h-16v-16zm128-32h16v16h-16v-16zm-32 0h16v16h-16v-16zm-32 0h16v16h-16v-16zm-32 0h16v16h-16v-16zm-32 0h16v16h-16v-16zm-32 32h16v16h-16v-16zm-32 0h16v16h-16v-16zm-32 0h16v16h-16v-16zm-32 0h16v16h-16v-16zm-32 0h16v16h-16v-16zm128-32h16v16h-16v-16zm-32 0h16v16h-16v-16zm-32 0h16v16h-16v-16zm-32 0h16v16h-16v-16zm-32 0h16v16h-16v-16zm784 96h16v16h-16v-16zm-32 0h16v16h-16v-16zm-32 0h16v16h-16v-16zm-32 0h16v16h-16v-16zm96-32h16v16h-16v-16zm-32 0h16v16h-16v-16zm-32 0h16v16h-16v-16zm-32 0h16v16h-16v-16zm-32 32h16v16h-16v-16zm-32 0h16v16h-16v-16zm-32 0h16v16h-16v-16zm-32 0h16v16h-16v-16zm-32 0h16v16h-16v-16zm128-32h16v16h-16v-16zm-32 0h16v16h-16v-16zm-32 0h16v16h-16v-16zm-32 0h16v16h-16v-16zm-32 0h16v16h-16v-16zm-32 32h16v16h-16v-16zm-32 0h16v16h-16v-16zm-32 0h16v16h-16v-16zm-80 0h16v16h-16v-16zm-32 0h16v16h-16v-16zm176-32h16v16h-16v-16zm-32 0h16v16h-16v-16zm-32 0h16v16h-16v-16zm-80 0h16v16h-16v-16zm-32 0h16v16h-16v-16zm-32 32h16v16h-16v-16zm-32 0h16v16h-16v-16zm-32 0h16v16h-16v-16zm-32 0h16v16h-16v-16zm-32 0h16v16h-16v-16zm128-32h16v16h-16v-16zm-32 0h16v16h-16v-16zm-32 0h16v16h-16v-16zm-32 0h16v16h-16v-16zm-32 0h16v16h-16v-16zm-32 32h16v16h-16v-16zm-32 0h16v16h-16v-16zm-32 0h16v16h-16v-16zm-32 0h16v16h-16v-16zm-32 0h16v16h-16v-16zm128-32h16v16h-16v-16zm-32 0h16v16h-16v-16zm-32 0h16v16h-16v-16zm-32 0h16v16h-16v-16zm-32 0h16v16h-16v-16zm784-96h16v16h-16v-16zm-32 0h16v16h-16v-16zm-32 0h16v16h-16v-16zm-32 0h16v16h-16v-16zm96-32h16v16h-16v-16zm-32 0h16v16h-16v-16zm-32 0h16v16h-16v-16zm-32 0h16v16h-16v-16zm-32 32h16v16h-16v-16zm-32 0h16v16h-16v-16zm-32 0h16v16h-16v-16zm-32 0h16v16h-16v-16zm-32 0h16v16h-16v-16zm128-32h16v16h-16v-16zm-32 0h16v16h-16v-16zm-32 0h16v16h-16v-16zm-32 0h16v16h-16v-16zm-32 0h16v16h-16v-16zm-32 32h16v16h-16v-16zm-32 0h16v16h-16v-16zm-32 0h16v16h-16v-16zm-80 0h16v16h-16v-16zm-32 0h16v16h-16v-16zm176-32h16v16h-16v-16zm-32 0h16v16h-16v-16zm-32 0h16v16h-16v-16zm-80 0h16v16h-16v-16zm-32 0h16v16h-16v-16zm-32 32h16v16h-16v-16zm-32 0h16v16h-16v-16zm-32 0h16v16h-16v-16zm-32 0h16v16h-16v-16zm-32 0h16v16h-16v-16zm128-32h16v16h-16v-16zm-32 0h16v16h-16v-16zm-32 0h16v16h-16v-16zm-32 0h16v16h-16v-16zm-32 0h16v16h-16v-16zm-32 32h16v16h-16v-16zm-32 0h16v16h-16v-16zm-32 0h16v16h-16v-16zm-32 0h16v16h-16v-16zm-32 0h16v16h-16v-16zm128-32h16v16h-16v-16zm-32 0h16v16h-16v-16zm-32 0h16v16h-16v-16zm-32 0h16v16h-16v-16zm-32 0h16v16h-16v-16zm-64 0h16v176H48V592zm912 0h16v176h-16V592z"/></svg>
