<svg viewBox="-10 0 1044 1024"><path fill="currentColor" d="M80 432 256 96h528l160 336h80v496H0V432h80zm32 0h800L768 128H272zm-80 32v432h960V464H32zm864 136h16v16h-16v-16zm-32 0h16v16h-16v-16zm-32 0h16v16h-16v-16zm-32 0h16v16h-16v-16zm96-32h16v16h-16v-16zm-32 0h16v16h-16v-16zm-32 0h16v16h-16v-16zm-32 0h16v16h-16v-16zm-32 32h16v16h-16v-16zm-32 0h16v16h-16v-16zm-32 0h16v16h-16v-16zm-32 0h16v16h-16v-16zm-32 0h16v16h-16v-16zm128-32h16v16h-16v-16zm-32 0h16v16h-16v-16zm-32 0h16v16h-16v-16zm-32 0h16v16h-16v-16zm-32 0h16v16h-16v-16zm-32 32h16v16h-16v-16zm-32 0h16v16h-16v-16zm-32 0h16v16h-16v-16zm-80 0h16v16h-16v-16zm-32 0h16v16h-16v-16zm176-32h16v16h-16v-16zm-32 0h16v16h-16v-16zm-32 0h16v16h-16v-16zm-80 0h16v16h-16v-16zm-32 0h16v16h-16v-16zm-32 32h16v16h-16v-16zm-32 0h16v16h-16v-16zm-32 0h16v16h-16v-16zm-32 0h16v16h-16v-16zm-32 0h16v16h-16v-16zm128-32h16v16h-16v-16zm-32 0h16v16h-16v-16zm-32 0h16v16h-16v-16zm-32 0h16v16h-16v-16zm-32 0h16v16h-16v-16zm-32 32h16v16h-16v-16zm-32 0h16v16h-16v-16zm-32 0h16v16h-16v-16zm-32 0h16v16h-16v-16zm-32 0h16v16h-16v-16zm128-32h16v16h-16v-16zm-32 0h16v16h-16v-16zm-32 0h16v16h-16v-16zm-32 0h16v16h-16v-16zm-32 0h16v16h-16v-16zm784 64h16v16h-16v-16zm-32 0h16v16h-16v-16zm-32 0h16v16h-16v-16zm-32 0h16v16h-16v-16zm-32 0h16v16h-16v-16zm-32 0h16v16h-16v-16zm-32 0h16v16h-16v-16zm-32 0h16v16h-16v-16zm-32 0h16v16h-16v-16zm-32 0h16v16h-16v-16zm-32 0h16v16h-16v-16zm-32 0h16v16h-16v-16zm-80 0h16v16h-16v-16zm-32 0h16v16h-16v-16zm-32 0h16v16h-16v-16zm-32 0h16v16h-16v-16zm-32 0h16v16h-16v-16zm-32 0h16v16h-16v-16zm-32 0h16v16h-16v-16zm-32 0h16v16h-16v-16zm-32 0h16v16h-16v-16zm-32 0h16v16h-16v-16zm-32 0h16v16h-16v-16zm-32 0h16v16h-16v-16zm784-96h16v16h-16v-16zm-32 0h16v16h-16v-16zm-32 0h16v16h-16v-16zm-32 0h16v16h-16v-16zm96-32h16v16h-16v-16zm-32 0h16v16h-16v-16zm-32 0h16v16h-16v-16zm-32 0h16v16h-16v-16zm-32 32h16v16h-16v-16zm-32 0h16v16h-16v-16zm-32 0h16v16h-16v-16zm-32 0h16v16h-16v-16zm-32 0h16v16h-16v-16zm128-32h16v16h-16v-16zm-32 0h16v16h-16v-16zm-32 0h16v16h-16v-16zm-32 0h16v16h-16v-16zm-32 0h16v16h-16v-16zm-32 32h16v16h-16v-16zm-32 0h16v16h-16v-16zm-32 0h16v16h-16v-16zm-80 0h16v16h-16v-16zm-32 0h16v16h-16v-16zm176-32h16v16h-16v-16zm-32 0h16v16h-16v-16zm-32 0h16v16h-16v-16zm-80 0h16v16h-16v-16zm-32 0h16v16h-16v-16zm-32 32h16v16h-16v-16zm-32 0h16v16h-16v-16zm-32 0h16v16h-16v-16zm-32 0h16v16h-16v-16zm-32 0h16v16h-16v-16zm128-32h16v16h-16v-16zm-32 0h16v16h-16v-16zm-32 0h16v16h-16v-16zm-32 0h16v16h-16v-16zm-32 0h16v16h-16v-16zm-32 32h16v16h-16v-16zm-32 0h16v16h-16v-16zm-32 0h16v16h-16v-16zm-32 0h16v16h-16v-16zm-32 0h16v16h-16v-16zm128-32h16v16h-16v-16zm-32 0h16v16h-16v-16zm-32 0h16v16h-16v-16zm-32 0h16v16h-16v-16zm-32 0h16v16h-16v-16zm784 304h16v16h-16v-16zm-32 0h16v16h-16v-16zm-32 0h16v16h-16v-16zm-32 0h16v16h-16v-16zm96-32h16v16h-16v-16zm-32 0h16v16h-16v-16zm-32 0h16v16h-16v-16zm-32 0h16v16h-16v-16zm-32 32h16v16h-16v-16zm-32 0h16v16h-16v-16zm-32 0h16v16h-16v-16zm-32 0h16v16h-16v-16zm-32 0h16v16h-16v-16zm128-32h16v16h-16v-16zm-32 0h16v16h-16v-16zm-32 0h16v16h-16v-16zm-32 0h16v16h-16v-16zm-32 0h16v16h-16v-16zm-32 32h16v16h-16v-16zm-32 0h16v16h-16v-16zm-32 0h16v16h-16v-16zm-80 0h16v16h-16v-16zm-32 0h16v16h-16v-16zm176-32h16v16h-16v-16zm-32 0h16v16h-16v-16zm-32 0h16v16h-16v-16zm-80 0h16v16h-16v-16zm-32 0h16v16h-16v-16zm-32 32h16v16h-16v-16zm-32 0h16v16h-16v-16zm-32 0h16v16h-16v-16zm-32 0h16v16h-16v-16zm-32 0h16v16h-16v-16zm128-32h16v16h-16v-16zm-32 0h16v16h-16v-16zm-32 0h16v16h-16v-16zm-32 0h16v16h-16v-16zm-32 0h16v16h-16v-16zm-32 32h16v16h-16v-16zm-32 0h16v16h-16v-16zm-32 0h16v16h-16v-16zm-32 0h16v16h-16v-16zm-32 0h16v16h-16v-16zm128-32h16v16h-16v-16zm-32 0h16v16h-16v-16zm-32 0h16v16h-16v-16zm-32 0h16v16h-16v-16zm-32 0h16v16h-16v-16zm784 64h16v16h-16v-16zm-32 0h16v16h-16v-16zm-32 0h16v16h-16v-16zm-32 0h16v16h-16v-16zm-32 0h16v16h-16v-16zm-32 0h16v16h-16v-16zm-32 0h16v16h-16v-16zm-32 0h16v16h-16v-16zm-32 0h16v16h-16v-16zm-32 0h16v16h-16v-16zm-32 0h16v16h-16v-16zm-32 0h16v16h-16v-16zm-80 0h16v16h-16v-16zm-32 0h16v16h-16v-16zm-32 0h16v16h-16v-16zm-32 0h16v16h-16v-16zm-32 0h16v16h-16v-16zm-32 0h16v16h-16v-16zm-32 0h16v16h-16v-16zm-32 0h16v16h-16v-16zm-32 0h16v16h-16v-16zm-32 0h16v16h-16v-16zm-32 0h16v16h-16v-16zm-32 0h16v16h-16v-16zm784-96h16v16h-16v-16zm-32 0h16v16h-16v-16zm-32 0h16v16h-16v-16zm-32 0h16v16h-16v-16zm96-32h16v16h-16v-16zm-32 0h16v16h-16v-16zm-32 0h16v16h-16v-16zm-32 0h16v16h-16v-16zm-32 32h16v16h-16v-16zm-32 0h16v16h-16v-16zm-32 0h16v16h-16v-16zm-32 0h16v16h-16v-16zm-32 0h16v16h-16v-16zm128-32h16v16h-16v-16zm-32 0h16v16h-16v-16zm-32 0h16v16h-16v-16zm-32 0h16v16h-16v-16zm-32 0h16v16h-16v-16zm-32 32h16v16h-16v-16zm-32 0h16v16h-16v-16zm-32 0h16v16h-16v-16zm-80 0h16v16h-16v-16zm-32 0h16v16h-16v-16zm176-32h16v16h-16v-16zm-32 0h16v16h-16v-16zm-32 0h16v16h-16v-16zm-80 0h16v16h-16v-16zm-32 0h16v16h-16v-16zm-32 32h16v16h-16v-16zm-32 0h16v16h-16v-16zm-32 0h16v16h-16v-16zm-32 0h16v16h-16v-16zm-32 0h16v16h-16v-16zm128-32h16v16h-16v-16zm-32 0h16v16h-16v-16zm-32 0h16v16h-16v-16zm-32 0h16v16h-16v-16zm-32 0h16v16h-16v-16zm-32 32h16v16h-16v-16zm-32 0h16v16h-16v-16zm-32 0h16v16h-16v-16zm-32 0h16v16h-16v-16zm-32 0h16v16h-16v-16zm128-32h16v16h-16v-16zm-32 0h16v16h-16v-16zm-32 0h16v16h-16v-16zm-32 0h16v16h-16v-16zm-32 0h16v16h-16v-16zM48 496h16v368H48V496zm912 0h16v368h-16V496z"/></svg>
