<svg viewBox="-10 0 1044 1024"><path fill="currentColor" d="M992 536q-3 0-5.5 2.5T984 544t2.5 5.5 5.5 2.5h32v256h-32V568q-10 0-17-7t-7-17 7-17 17-7v-56H32v72H0V432h1024v104h-32zM32 552v256H0V552h32zm960 272h32v104H0V824h32v72h960v-72zM0 536v-16h32q10 0 17 7t7 17-7 17-17 7H0v-16h32q3 0 5.5-2.5T40 544t-2.5-5.5T32 536H0zm1024 272h-32q-3 0-5.5 2.5T984 816t2.5 5.5 5.5 2.5h32v16h-32q-10 0-17-7t-7-17 7-17 17-7h32v16zM418 619q-62-23-90-32t-60-16q-2 0-3.5-.5t-2.5-.5q38 8 64 38.5t26 71.5v3q4 2 8 4.5t8 5.5q6 3 12 6.5t14 8.5q2 1 3.5 2t3.5 2l2.5 2.5 2.5 1.5q-3-9-4.5-18t-1.5-18q0-17 4.5-32t13.5-29zm-160-50q-19-3-37.5-4.5T184 564q-39 2-78.5 15T26 615l-4-6q40-25 80.5-38t81.5-15q20-1 41.5 1t43.5 6q34 7 62 16t91 34q16-21 39.5-33t50.5-12q46 0 79 33t33 79q12 3 24 5l24 4v-9q0-46 33-79t79-33q44 0 75.5 29t35.5 72q14-5 27.5-11t25.5-12q13-7 23.5-13t26.5-16l4 6q-16 11-26.5 17T952 653t-27 13-29 11v3q0 46-33 79t-79 33q-42 0-73.5-27.5T673 697q-12-1-24.5-3.5T624 688q-3 36-25.5 63T542 788q39 14 77.5 21t84.5 7q83 0 156.5-22T998 729l4 6q-64 45-138.5 67T704 824q-50 0-92-8t-84-25q-4 0-8 .5t-8 .5q-33 0-60.5-18T411 728l-4-2-4-3-3-1.5-4-2.5q-1-1-3-2t-3-2q-8-5-14-8.5t-12-7.5q-3-2-6-3.5l-7-3.5q-4 42-36 71t-75 29q-46 0-79-33t-33-79q0-9 1.5-17t3.5-16q-27 8-53.5 23.5T27 710l-6-6q28-25 57-42t58-24q13-31 41-50.5t63-19.5q5 0 9 .5t9 .5zM0 808v-16h32q10 0 17 7t7 17-7 17-17 7H0v-16h32q3 0 5.5-2.5T40 816t-2.5-5.5T32 808H0zm503-301v2q0 1-.5 1.5l-.5.5h-.5l-.5 1h-13v-2l.5-.5.5-.5h11v-3h-7q-1 0-1.5-.5t-1.5-.5h-1q0-1-.5-1t-.5-1v-4l.5-.5.5-.5.5-.5.5-.5h13v1q0 1-.5 1t-.5 1h-11v3h10l.5.5.5.5.5.5.5.5v2zm8 5h-2l-1.5-.5-1.5-.5q0-1-.5-2t-.5-3v-4h-1l1-2v-2l3-1v3h3l-1 2h-2v5.5l1 1.5h3l-1 3zm6 0q-1 0-2-.5l-1-.5q-1-1-1-1.5v-7l1-1.5 1-.5 2-.5h4q1 0 2 .5l1 .5q1 1 1 1.5v7l-1 1.5-1 .5-2 .5h-4zm6-8-.5-.5-.5-.5h-6v6h6l.5-.5.5-.5v-4zm5 8v-12h2v2l1-1 1-1h3l-1 3h-3v9h-3zm8-13v-3h3v3h-3zm0 13v-12h3v12h-3zm15 0v-9h-6.5l-.5 1v8h-2v-12h2v2q0-1 .5-1t.5-1h6q1 1 1.5 1h.5v1l1 1v9h-3zm8 0q-1 0-1.5-.5l-.5-.5q-1 0-1-.5v-4l1-.5q0-1 .5-1h7.5v-2h-8v-3h9q0 1 .5 1h.5l.5.5.5.5v10h-.5l-.5-1-.5-.5-.5-.5v.5l-1 .5q0 1-.5 1H559zm6-5h-6v2h6v-2zm11 5h-1q-1 0-2-.5l-1-.5q-1-1-1-2v-7h-2l1-2h1v-2l2-1v3h3l-1 2h-2v4q0 1 .5 1.5t.5 1.5h3l-1 3zm6 0q-1 0-1.5-.5t-1.5-.5q0-1-.5-1.5t-.5-1.5v-4q0-1 .5-1.5t.5-1.5q1 0 1.5-.5t1.5-.5h4q1 0 2 .5t2 .5q0 1 .5 1.5t.5 1.5v4q0 1-.5 1.5t-.5 1.5q-1 0-2 .5t-2 .5h-4zm6-8v-.5l-1-.5h-6v6h6q1 0 1-.5V504zm5 8v-12h3v2-1l1-1h3v3h-4v9h-3zm-126-12q-1-4-3-6t-4-2q-4 0-11.5 7.5T441 510t12 .5 16-2.5q3 0 8.5 1t5.5 7q0 7-11 17.5T455 544q-3 0-5-3t-1-9q1 4 2.5 6t3.5 2q3 0 11-7.5t8-10.5-10-.5-15 2.5-11-1-6-8q0-6 11-16.5t17-10.5q3 0 5 3t2 9zm445-68L768 128H272L112 432H80L256 96h528l160 336h-32zM240 776q40 0 68-28t28-68-28-68-68-28-68 28-28 68 28 68 68 28zm272 0q40 0 68-28t28-68-28-68-68-28-68 28-28 68 28 68 68 28zm272 0q40 0 68-28t28-68-28-68-68-28-68 28-28 68 28 68 68 28z"/></svg>
