<svg viewBox="-10 0 1034 1024"><path fill="currentColor" d="M800 272v464h-48v16h-48v-16H320v16h-48v-16h-48V272h576zm-32 32H256v400h512V304zm-48 16q13 0 22.5 9.5T752 352v304q0 13-9.5 22.5T720 688H304q-13 0-22.5-9.5T272 656V352q0-13 9.5-22.5T304 320h416zm0 16H304q-7 0-11.5 4.5T288 352v304q0 7 4.5 11.5T304 672h416q7 0 11.5-4.5T736 656V352q0-7-4.5-11.5T720 336zM512 576q2 0 5.5.5t9.5 3.5q5 2 7 2.5t3 .5q4 2 5.5 4t1.5 6v13q0 5-1 6.5t-6 3.5q-1 1-4 2t-8 3q-3 1-6.5 2t-6.5 1-6.5-1-6.5-2q-6-2-8.5-3t-3.5-2q-4-1-5.5-3t-1.5-6v-12q0-5 1.5-7.5t5.5-4.5q1 0 2.5-.5l7.5-2.5q6-3 9.5-3.5t5.5-.5zm0 2q-3 0-6.5 1t-8.5 2q-5 2-6.5 2.5T488 585q-2 1-4 2.5t-2 5.5v14q0 3 1 4.5t4 3.5q2 1 3.5 1.5t6.5 2.5q3 1 7 2t8 1 8-1 7-2q5-2 6.5-2.5t3.5-1.5q3-2 4-3t1-4v-14q0-5-2-6.5t-4-2.5l-3-1.5-6-2.5q-5-1-8.5-2t-6.5-1zm-3 22q2 0 3.5 1.5t1.5 3.5v1h-4v-1.5l-1-.5-.5.5-.5 1.5q0 2 3 3t4 4q0 4-1.5 5.5T509 620q-2-1-3-2.5t-1-3.5v-1h3v1.5l1 .5q0 1 .5 1h.5l.5-.5.5-.5q0-4-3-5t-3-4 1-4.5 3-1.5zm13 1v3h-1v14l-4 1v-14h-2v-4h7zm-21 0 3 17-3-1-1-3-3-1-1 3-2-1 3-14h4zm30 0v3h-4v3l3-1v3l-3 1v3l4-1v2l-7 3v-16h7zm-44 0 1 7 2-7h3v14l-2-1v-8l-2 7h-2l-1-8v7h-2v-11h3zm49 0q2 0 3 .5t1 2.5q0 1-.5 1.5t-1.5.5l1.5 1.5.5 2.5v1l-2 1v-2l-.5-1.5-1.5-.5h-1v5l-3 1v-13h4zm-44-11v1h-2q0-1-.5-1.5t-1.5-.5-1.5 1.5-.5 3.5q0 1 .5 2t1.5 1 1.5-1l.5-1v-1h2q0 2-1 3.5t-3 1.5q-2 1-3.5-1t-1.5-4q0-3 1.5-5t3.5-2q1 0 2.5.5t1.5 2.5zm11 1q0 3-1 5.5t-4 2.5q-2 0-3.5-1.5T493 592q0-3 1-5.5t3-2.5h1q2-1 3 1t2 6zm11-2q0 5-1.5 8t-3.5 2h-1q-2 0-3.5-2t-1.5-7q0-3 1.5-6t3.5-4q3 0 4.5 2.5t1.5 6.5zm1-9 3 1v14l4 1v3h-7v-19zm17 6 4 1h1q2 1 2.5 2t.5 2-.5 1.5-1.5.5q1 1 1.5 2t.5 3v1h-2v-2l-.5-1.5-1.5-1.5h-1v5h-3v-13zm-8-3 7 2v3l-4-1v3h3v3h-3v3h4v3h-7v-16zm-26 4h-1q-1 0-1 2v5.5l1 1.5h1q1 0 1-1.5V591q0-1-.5-2.5l-.5-1.5zm10-3q-1 0-1.5 2t-.5 4q0 1 .5 3t1.5 2h1l1-1.5V589q0-1-.5-3t-1.5-2z"/></svg>
