<svg viewBox="-10 0 1034 1024"><path fill="currentColor" d="M776 240v528h-40v16h-40v-16H328v16h-40v-16h-40V240h528zm-432 32h-64v464h461l-50-79-347 79V272zm400 10-48 75v294l48 75V282zm-392 0v444l336-76V358l-336-76zm389-10H344l347 79zM320 680v32h-16v-32h16zm8-112v32h-32v-32h32zm-16-96q2 0 3 1t1 3-1 3-3 1-3-1-1-3 1-3 3-1zm0-24q2 0 3 1t1 3-1 3-3 1-3-1-1-3 1-3 3-1zm0-24q2 0 3 1t1 3-1 3-3 1-3-1-1-3 1-3 3-1zm0-24q2 0 3 1t1 3-1 3-3 1-3-1-1-3 1-3 3-1zm0-24q2 0 3 1t1 3-1 3-3 1-3-1-1-3 1-3 3-1zm0-24q2 0 3 1t1 3-1 3-3 1-3-1-1-3 1-3 3-1zm0-56q7 0 11.5 4.5T328 312t-4.5 11.5T312 328t-11.5-4.5T296 312t4.5-11.5T312 296zm365-8-1 2h4v3h-4l-1 6v2q1 0 1 .5t1 .5h1v2h-3q-1 0-1.5-.5t-1.5-.5q0-1-.5-1.5t-.5-1.5v-1l2-11h4zm-28 2-2 9v1l.5.5.5.5.5.5.5.5q1 0 1.5-.5t.5-1.5l2-10h4l-2 11q0 1-.5 1.5t-1.5.5q0 1-.5 1H647q-1 0-1.5-.5l-.5-.5q-1-1-1-1.5V300l1-10h4zm41 0 1 .5 1 .5q1 1 1 1.5v2.5l-1 6q0 1-.5 1.5l-.5.5q-1 1-1.5 1H685q-1 0-1.5-.5t-1.5-.5q0-1-.5-1.5t-.5-1.5l1-7 .5-.5.5-1.5q1 0 1.5-.5t1.5-.5h4zm14 0v3h-3.5l-1.5 1-1 10h-4l2-11 .5-.5.5-1.5q1 0 1.5-.5t1.5-.5h4zm-79 0 1 .5 1 .5q1 1 1 1.5v2.5l-1 9h-7q-1 0-1.5-.5t-1.5-.5q0-1-.5-1.5t-.5-1.5v-2q1-2 2-2.5t2-.5h5q0-1-.5-1t-.5-1h-6l1-3h6zm18 0-1 3h-6.5l-.5 1 4 3 1.5 1.5.5 1.5-.5 2-.5 1q-1 1-1.5 1H629v-2h7l.5-.5.5-1.5-4-3q-1 0-1.5-1t-.5-2v-1.5l1-1.5 1-.5 2-.5h8zm27 0-1 3h-6.5l-.5 1 5 3 1.5 1.5.5 1.5-.5 2-1.5 1q0 1-.5 1H657v-2h6q1 0 1.5-.5t.5-1.5l-5-3q-1 0-1.5-1t-.5-2 .5-1.5.5-1.5q1 0 1.5-.5t1.5-.5h8zm19 3h-1.5l-.5 1-1 5v2q1 0 1 .5t1 .5 1.5-.5.5-1.5l1-5v-1.5l-1-.5h-1zm-65 4h-2.5l-.5 1h-1v3q1 0 1 .5t1 .5h1l1-5z"/></svg>
