<svg viewBox="-10 0 1044 1024"><path fill="currentColor" d="M1024 432v496H0V432h1024zm-64 184H64v280h896V616zM400 488H104v104h296V488zm520 0H624v104h296V488zm-528 8H112v88h280v-88zm520 0H632v88h280v-88zM784 96l160 336H80L256 96h528zm-16 32H272L112 432h800zm184 496v264H72V624h880zM504 824H288v56h216v-56zm-224 0H80v56h200v-56zm664 0H736v56h208v-56zm-216 0H512v56h216v-56zm208 8v40h-40v-40h40zm-216 0v40h-40v-40h40zm-224 0v40h-40v-40h40zm-224 0v40h-40v-40h40zm656 8h-24v24h24v-24zm-216 0h-24v24h24v-24zm-224 0h-24v24h24v-24zm-224 0h-24v24h24v-24zm736-320h-16v320h16V520zm-960 0H24v320h16V520zm688 240H512v56h216v-56zm216 0H736v56h208v-56zm-664 0H80v56h200v-56zm224 0H288v56h216v-56zm-232 8v40h-40v-40h40zm224 0v40h-40v-40h40zm224 0v40h-40v-40h40zm216 0v40h-40v-40h40zm-8 8h-24v24h24v-24zm-216 0h-24v24h24v-24zm-448 0h-24v24h24v-24zm224 0h-24v24h24v-24zm16-80H288v56h216v-56zm-224 0H80v56h200v-56zm664 0H736v56h208v-56zm-216 0H512v56h216v-56zm208 8v40h-40v-40h40zm-216 0v40h-40v-40h40zm-224 0v40h-40v-40h40zm-224 0v40h-40v-40h40zm440 8h-24v24h24v-24zm-224 0h-24v24h24v-24zm-224 0h-24v24h24v-24zm664 0h-24v24h24v-24zm-200-80H512v56h216v-56zm216 0H736v56h208v-56zm-664 0H80v56h200v-56zm224 0H288v56h216v-56zm-232 8v40h-40v-40h40zm448 0v40h-40v-40h40zm216 0v40h-40v-40h40zm-440 0v40h-40v-40h40zm432 8h-24v24h24v-24zm-664 0h-24v24h24v-24zm224 0h-24v24h24v-24zm224 0h-24v24h24v-24zm-256-72h-16v16h16v-16zm24 0h-16v16h16v-16zm48 0h-32v16h32v-16zm16 4q-2 0-3 1t-1 3 1 3 3 1 3-1 1-3-1-3-3-1zm12 0q-2 0-3 1t-1 3 1 3 3 1 3-1 1-3-1-3-3-1zm12 0q-2 0-3 1t-1 3 1 3 3 1 3-1 1-3-1-3-3-1zm12 0q-2 0-3 1t-1 3 1 3 3 1 3-1 1-3-1-3-3-1z"/></svg>
