<svg viewBox="-10 0 1034 1024"><path fill="currentColor" d="m528 104 392 392v32L636 812l60 60 32 48h-16l-92-92-92 92h-32l-92-92-92 92h-16l32-48 60-60-284-284v-32l392-392h32zm-13 32h-6L136 509v6l373 373h6l373-373v-6zm-3 392 168 168-168 168-168-168zm0 11L355 696l157 157 157-157-157-157zm184-195 168 168-168 168-168-168zm-368 0 168 168-168 168-168-168zm368 11L539 512l157 157 157-157zm-368 0L171 512l157 157 157-157zm184-195 168 168-168 168-168-168zm0 11L355 328l157 157 157-157zm-1 477-7 7-16 17q-18 17-21 20.5l-3 3.5 23.5 24 24.5 24q1 0 23.5-23l22.5-23 1-.5 1-1.5q0-1-24-24.5L512 648h-1zm0 26v19h-1l-1-1q-1 0-1.5-.5l-.5-.5h-1l-.5-.5-.5-.5h-1q-2-1-4.5-2.5T496 686l-.5-.5-.5-.5h-2q-4-2-6.5-1.5T485 687q0 2 1 3.5t1 2.5h1v2q1 0 1 .5v.5q1 2 1 2.5t-2 .5q-1 0-1.5.5t-.5 1.5q-1 2-1 4.5t1 2.5l2.5-1.5 2.5-1.5 1-.5 1-.5v.5l-1 1.5-1.5 2-1.5 2q-1 2-1 3t1 1v-1h1q0-1 1-2l1-1v-1h.5l.5-1 3-3 1-1q1-1 1 0t-1 2v1q0 1-.5 1h-.5l-.5 1.5-1.5 2.5q0 1-.5 2.5t-.5 3.5v2l-11.5-11.5L469 696l1.5-1.5 8.5-8.5 10-10h2q1 0 2 .5t2 .5v.5l1 .5 1.5 1 1.5 1h1v1h1l1.5 1.5 1.5 1.5 1 1-1-2-1-1.5-1-1.5-.5-.5-.5-.5-3-3-3-3q-1 0-1-.5V671l1.5-1.5 2.5-2.5q1 0 2.5 1.5t2.5 4.5q1 0 1.5 1t.5 2l1 1v-1l-1-2q0-2-1-4.5t-2-4.5q0-1-.5-1t.5 0q0-1 4.5-5.5l4.5-4.5v20zm7-15 4.5 4.5-.5 2.5-.5.5-.5.5v1l-1 1v1l-.5.5-.5.5q0 1-.5 2.5t-.5 3.5l1-1q0-1 1.5-3t1.5-3h1l2.5-2.5 2.5 1.5 2 2.5-1 1.5q0 1-.5 1h-.5l-1 1-1.5 1.5-2.5 2.5-1 1v1h-1l-.5 1-.5 1-.5 1-.5 1 .5-.5.5-.5q3-3 6-5t6-3q1 0 1.5-.5l.5-.5q0 1 3 3.5t8 7.5l9 9 1 2-12 11.5-12 11.5v-1q0-2-.5-4.5T529 709h-1v-1q-1 0-1-.5v-.5l-.5-1.5-.5-1.5q1-1 2 0t2 3l.5.5.5.5v1h1v1q1 0 1 .5v1.5h1l1 1q0 1 .5.5l.5-.5q0-1-.5-1.5l-.5-.5v-1h-1v-1.5l-1-.5-.5-1-.5-1q0-1-.5-1.5l-.5-.5h.5l2.5 1q3 2 3.5 2.5t1.5-.5v-5q-1-1-1.5-2t-1.5-1q-2 0-2-.5t1-2.5v-.5l1-.5v-2h1v-1l.5-.5.5-.5v-1.5l1-.5v-4l-.5-.5-1.5-.5q0-1-2-.5t-4 1.5h-2l-.5.5-.5.5h-1l-.5.5-.5.5h-1l-1.5.5-1.5 1.5h-.5l-1.5 1q-1 0-2 .5l-1 .5-1 1-2 1h-1v-39l1.5 1.5 3.5 3.5zm8 33q2 0 3 1.5t0 2.5q0 1-1 1t-2-1q0-1-1-1h-2v1h-1q0 2-1.5 1.5T519 695q0-1 1-1.5t2-1.5h4zm-24 0q2 1 2.5 2.5t-.5 2.5h-1.5l-.5-1q-1-1-2-1t-2 1-2 1-1-1q0-3 2.5-4t4.5 0zm12 5q1 0 2.5 1t2.5 2q0 1 .5 1.5t.5 1.5v1h1l1 1 2 2q1 2 1.5 4t-.5 2h-1.5l-.5-1q-3-3-4.5-4t-4.5-2h-1v-9h1zm-3 1v7.5l-2 .5q-2 1-3.5 2t-3.5 4q-2 1-2.5 1.5t-.5-1.5 1-4 3-4h1v-1q0-2 1.5-3.5t3.5-2.5h2v1zm0 15v3.5l-2 .5h-1v.5l-1 .5-.5.5-.5.5q-1 1-1 3t1 4q0 1 1 1.5t2 .5h1q1 1 1 1.5v4l-1 .5-1-1v1l1 1 .5.5.5.5v2l-7-7-7-7v-1l.5-.5.5-.5v-1l.5-.5.5-.5v-1h1v-2q1 0 2-1.5t2-2.5h1l1-1q1 0 2.5-1t2.5-1v3zm4-2h2q0 1 .5 1h.5l.5.5.5.5h1v1l1.5 1.5 2.5 2.5q0 1 .5 1h.5l.5 1 .5 2 .5 1 .5 1-7 7-7 7v-2l1-1 1-1v-1l-.5.5-1.5.5v-5.5l1-.5h2l1.5-1.5.5-1.5q1-1 1-3.5t-1-2.5l-.5-.5-.5-.5-1-.5-1-.5q-1 0-1.5-.5t-.5-3.5v-3h1l.5.5.5.5z"/></svg>
