<svg viewBox="-10 0 1034 1024"><path fill="currentColor" d="m688 48 40 8v32l8 1v838l-8 1v40l-40 8h-16v-40H340l-4-856h336v-8H328v866l-28 38h-12V48h400zm-20 896v32H304l24-32h340zm12-856H344v840h336V88zm8 0v840l40-8V96zM459 899h5l-1 2h-4q-3 0-6.5 1t-4.5 3q-1 0-.5.5t.5 1.5q1 1 3 1.5t5 .5h5l-1 3h-4q-3 0-6-.5t-5-2.5q0-1-.5-2t-.5-2q0-4 5.5-5t9.5-1zm-41-3h1v1l-.5 1-.5 2h7q-1 1-1.5 2t-1.5 1h-4l-2 5q0 1 1.5 1h5.5v3h-6.5l-2.5-1-1.5-2.5.5-1.5 2-11h3zm22 2q1 0 2 .5t2 .5l-1 2h-3q-2 0-5 .5t-4 .5l-1.5 1.5-.5.5h11-1v1.5l-1 1.5h-10v.5l1 .5q1 1 2.5 1.5t4.5.5q1 0 2-.5t2-.5h1l-1 3h-5q-2 0-5-.5t-4-2.5q-1-1-1-2v-2q1-4 6-5.5t9-1.5zm-49-2-3 14q0 1-.5 1.5t-1.5.5h-3l2-7h-9l1-1 .5-.5.5-.5h8l1-5h-8l-2 .5-3 3.5-2 9-.5.5-.5.5h-3l3-11q0-1 .5-2t2.5-2q1 0 2.5-.5t2.5-.5h12zm14 2q1 0 2.5.5t2.5.5q1 1 1 2.5v1.5q-1 3-1.5 4l-.5 1q0 3-1 3.5t-2 .5h-1l1-3 1-5v-2q-1 0-1-.5t-1-.5h-8l-2 7q0 2-1 3t-3 1h-1l4-14h11zm-85-242v224l8-4V660l-8-4zm0-272v224l8-4V388zm0-272v224l8-4V116z"/></svg>
