<svg viewBox="-10 0 1034 1024"><path fill="currentColor" d="M712 16q3 0 5.5 2.5T720 24v976q0 3-2.5 5.5t-5.5 2.5H312q-3 0-5.5-2.5t-2.5-5.5V24q0-3 2.5-5.5T312 16h400zm-16 64H328v904h368V80zM384 424l64 64h240v488H336V424h48zm-3 8h-37v536h336V496H445l-64-64zm146 216q10 0 17.5 7.5T552 674q0 10-7.5 17.5T527 699q-5 0-9.5-2t-7.5-5l-9-10q-2-2-4-3t-5-1q-5 0-9 4t-4 9q0 6 4 9.5t9 4.5l5.5-1 10.5-10v10q-3 4-7 6t-9 2q-8 0-14-6t-6-15q0-8 6-14.5t14-6.5q4 0 8 2t6 5l9 9q2 3 5.5 4.5t6.5 1.5q7 0 12.5-5.5T545 674q0-8-5-13t-13-6l-7.5 2-11.5 15v-13q3-5 8-8t11-3zM688 88v392h-48l-64-64H336V88h352zm-8 8H344v312h235l64 64h37V96zM368 440q7 0 11.5 4.5T384 456t-4.5 11.5T368 472t-11.5-4.5T352 456t4.5-11.5T368 440zm200-16 16 16H416l-16-16h168zM500 46q1 0 1 .5V69l-2 3q1 0 3-1.5t2-4.5V48q0-1 .5-1.5t1.5-.5h-6zm42 0h-6q1 0 1.5.5l.5.5v12q0 3 2 4.5t4 1.5q3 0 4.5-1t2.5-4V47l1-1h-6q1 0 1 .5t1 .5v13q0 1-1 2t-3 1q-1 0-2-.5t-1-2.5V47l1-1zm-53 0h-5l.5.5.5.5v12q0 3 2 4.5t4 1.5q3 0 5-1t2-4V47l1-1h-6q1 0 1.5.5l.5.5v13q0 1-1 2t-3 1q-1 0-2-.5t-1-2.5V48q0-1 .5-1t.5-1zm43 0q-4 0-5 2t-2 3q0 1 .5 2t2.5 2l1 1 3 2q1 0 1.5.5t.5 1.5l-.5 1.5L530 63h-2.5l-1.5-1-1-1 1 4h4q4 0 5-1.5t2-2.5v-1q0-1-.5-2t-2.5-2v-1l-4-2q-1 0-1-.5t-1-1.5v-1l.5-1 2.5-1h2.5l1.5 1v-3h-3zm-49 0h-11q1 0 1 .5v18l-1 .5h6q-1 0-1.5-.5T476 63v-7h5.5l.5 1v-3h-6v-6h6l.5.5.5.5v-3zm42 0h-12l-1 4 1.5-1.5.5-.5h3v16.5l-1 .5h6q-1 0-1.5-.5T520 63V48h3q1 0 1 .5t1 1.5v-4zm-18 0 .5.5.5.5v16l-.5.5-.5 1.5h5l-.5-.5-.5-1.5V48q0-1 .5-1t.5-1h-5zm3-14q-1 0-2 .5t-2 1.5v3q0-2 1.5-2.5T509 33l1 1q1 0 2 1t1 2q0 2-1 3t-2 1-1.5-.5l-.5-.5h-1l-2-2q0-1-1-1h-2l-2.5 1-1.5 3q0 1 1.5 2.5T502 45t2-.5l1-.5 1-1v-2q-1 2-2 2h-2q-1 0-1.5-.5T500 41t.5-2 1.5-1h2v1l2 2q1 1 2 1h2q2 0 3.5-1.5T515 37t-1.5-3.5T510 32z"/></svg>
