<svg viewBox="-10 0 1034 1024"><path fill="currentColor" d="m776 208 24 4v228l-8 16v104l8 16v228l-24 4h-48l-40-40H328l-40 40h-48l-24-4V212l24-4h536zm-96 568 32 32H304l32-32h344zm-8-24H344l-8 8h344zm104-456-24 24H264l-24-24v432l32-32h472l32 32V296zM622 640q1 0 1.5.5t.5 1.5v12q0 1-.5 1.5t-1.5.5h-4q-1 0-1.5-.5t-.5-1.5v-12q0-1 .5-1.5t1.5-.5h4zm96 0q1 0 1.5.5t.5 1.5v12q0 1-.5 1.5t-1.5.5h-4q-1 0-1.5-.5t-.5-1.5v-12q0-1 .5-1.5t1.5-.5h4zm-416 0q1 0 1.5.5t.5 1.5v12q0 1-.5 1.5t-1.5.5h-4q-1 0-1.5-.5t-.5-1.5v-12q0-1 .5-1.5t1.5-.5h4zm32 0q1 0 1.5.5t.5 1.5v12q0 1-.5 1.5t-1.5.5h-4q-1 0-1.5-.5t-.5-1.5v-12q0-1 .5-1.5t1.5-.5h4zm32 0q1 0 1.5.5t.5 1.5v12q0 1-.5 1.5t-1.5.5h-4q-1 0-1.5-.5t-.5-1.5v-12q0-1 .5-1.5t1.5-.5h4zm32 0q1 0 1.5.5t.5 1.5v12q0 1-.5 1.5t-1.5.5h-4q-1 0-1.5-.5t-.5-1.5v-12q0-1 .5-1.5t1.5-.5h4zm32 0q1 0 1.5.5t.5 1.5v12q0 1-.5 1.5t-1.5.5h-4q-1 0-1.5-.5t-.5-1.5v-12q0-1 .5-1.5t1.5-.5h4zm32 0q1 0 1.5.5t.5 1.5v12q0 1-.5 1.5t-1.5.5h-4q-1 0-1.5-.5t-.5-1.5v-12q0-1 .5-1.5t1.5-.5h4zm96 0q1 0 1.5.5t.5 1.5v12q0 1-.5 1.5t-1.5.5h-4q-1 0-1.5-.5t-.5-1.5v-12q0-1 .5-1.5t1.5-.5h4zm96 0q1 0 1.5.5t.5 1.5v12q0 1-.5 1.5t-1.5.5h-4q-1 0-1.5-.5t-.5-1.5v-12q0-1 .5-1.5t1.5-.5h4zm-160 0q1 0 1.5.5t.5 1.5v12q0 1-.5 1.5t-1.5.5h-4q-1 0-1.5-.5t-.5-1.5v-12q0-1 .5-1.5t1.5-.5h4zm96 0q1 0 1.5.5t.5 1.5v12q0 1-.5 1.5t-1.5.5h-4q-1 0-1.5-.5t-.5-1.5v-12q0-1 .5-1.5t1.5-.5h4zm96 0q1 0 1.5.5t.5 1.5v12q0 1-.5 1.5t-1.5.5h-4q-1 0-1.5-.5t-.5-1.5v-12q0-1 .5-1.5t1.5-.5h4zm-160 0q1 0 1.5.5t.5 1.5v12q0 1-.5 1.5t-1.5.5h-4q-1 0-1.5-.5t-.5-1.5v-12q0-1 .5-1.5t1.5-.5h4zm-80-8q1 0 1.5.5t.5 1.5v12q0 1-.5 1.5t-1.5.5h-4q-1 0-1.5-.5t-.5-1.5v-12q0-1 .5-1.5t1.5-.5h4zm-96 0q1 0 1.5.5t.5 1.5v12q0 1-.5 1.5t-1.5.5h-4q-1 0-1.5-.5t-.5-1.5v-12q0-1 .5-1.5t1.5-.5h4zm352 0q1 0 1.5.5t.5 1.5v12q0 1-.5 1.5t-1.5.5h-4q-1 0-1.5-.5t-.5-1.5v-12q0-1 .5-1.5t1.5-.5h4zm-96 0q1 0 1.5.5t.5 1.5v12q0 1-.5 1.5t-1.5.5h-4q-1 0-1.5-.5t-.5-1.5v-12q0-1 .5-1.5t1.5-.5h4zm-96 0q1 0 1.5.5t.5 1.5v12q0 1-.5 1.5t-1.5.5h-4q-1 0-1.5-.5t-.5-1.5v-12q0-1 .5-1.5t1.5-.5h4zm160 0q1 0 1.5.5t.5 1.5v12q0 1-.5 1.5t-1.5.5h-4q-1 0-1.5-.5t-.5-1.5v-12q0-1 .5-1.5t1.5-.5h4zm64 0q1 0 1.5.5t.5 1.5v12q0 1-.5 1.5t-1.5.5h-4q-1 0-1.5-.5t-.5-1.5v-12q0-1 .5-1.5t1.5-.5h4zm-448 0q1 0 1.5.5t.5 1.5v12q0 1-.5 1.5t-1.5.5h-4q-1 0-1.5-.5t-.5-1.5v-12q0-1 .5-1.5t1.5-.5h4zm32 0q1 0 1.5.5t.5 1.5v12q0 1-.5 1.5t-1.5.5h-4q-1 0-1.5-.5t-.5-1.5v-12q0-1 .5-1.5t1.5-.5h4zm256 0q1 0 1.5.5t.5 1.5v12q0 1-.5 1.5t-1.5.5h-4q-1 0-1.5-.5t-.5-1.5v-12q0-1 .5-1.5t1.5-.5h4zm-192 0q1 0 1.5.5t.5 1.5v12q0 1-.5 1.5t-1.5.5h-4q-1 0-1.5-.5t-.5-1.5v-12q0-1 .5-1.5t1.5-.5h4zm32 0q1 0 1.5.5t.5 1.5v12q0 1-.5 1.5t-1.5.5h-4q-1 0-1.5-.5t-.5-1.5v-12q0-1 .5-1.5t1.5-.5h4zm64 0q1 0 1.5.5t.5 1.5v12q0 1-.5 1.5t-1.5.5h-4q-1 0-1.5-.5t-.5-1.5v-12q0-1 .5-1.5t1.5-.5h4zm64 0q1 0 1.5.5t.5 1.5v12q0 1-.5 1.5t-1.5.5h-4q-1 0-1.5-.5t-.5-1.5v-12q0-1 .5-1.5t1.5-.5h4zm96 0q1 0 1.5.5t.5 1.5v12q0 1-.5 1.5t-1.5.5h-4q-1 0-1.5-.5t-.5-1.5v-12q0-1 .5-1.5t1.5-.5h4zm-112-16q1 0 1.5.5t.5 1.5v12q0 1-.5 1.5t-1.5.5h-4q-1 0-1.5-.5t-.5-1.5v-12q0-1 .5-1.5t1.5-.5h4zm-32 0q1 0 1.5.5t.5 1.5v12q0 1-.5 1.5t-1.5.5h-4q-1 0-1.5-.5t-.5-1.5v-12q0-1 .5-1.5t1.5-.5h4zm96 0q1 0 1.5.5t.5 1.5v12q0 1-.5 1.5t-1.5.5h-4q-1 0-1.5-.5t-.5-1.5v-12q0-1 .5-1.5t1.5-.5h4zm-128 0q1 0 1.5.5t.5 1.5v12q0 1-.5 1.5t-1.5.5h-4q-1 0-1.5-.5t-.5-1.5v-12q0-1 .5-1.5t1.5-.5h4zm96 0q1 0 1.5.5t.5 1.5v12q0 1-.5 1.5t-1.5.5h-4q-1 0-1.5-.5t-.5-1.5v-12q0-1 .5-1.5t1.5-.5h4zm96 0q1 0 1.5.5t.5 1.5v12q0 1-.5 1.5t-1.5.5h-4q-1 0-1.5-.5t-.5-1.5v-12q0-1 .5-1.5t1.5-.5h4zm32 0q1 0 1.5.5t.5 1.5v12q0 1-.5 1.5t-1.5.5h-4q-1 0-1.5-.5t-.5-1.5v-12q0-1 .5-1.5t1.5-.5h4zm-64 0q1 0 1.5.5t.5 1.5v12q0 1-.5 1.5t-1.5.5h-4q-1 0-1.5-.5t-.5-1.5v-12q0-1 .5-1.5t1.5-.5h4zm96 0q1 0 1.5.5t.5 1.5v12q0 1-.5 1.5t-1.5.5h-4q-1 0-1.5-.5t-.5-1.5v-12q0-1 .5-1.5t1.5-.5h4zm-416 0q1 0 1.5.5t.5 1.5v12q0 1-.5 1.5t-1.5.5h-4q-1 0-1.5-.5t-.5-1.5v-12q0-1 .5-1.5t1.5-.5h4zm32 0q1 0 1.5.5t.5 1.5v12q0 1-.5 1.5t-1.5.5h-4q-1 0-1.5-.5t-.5-1.5v-12q0-1 .5-1.5t1.5-.5h4zm32 0q1 0 1.5.5t.5 1.5v12q0 1-.5 1.5t-1.5.5h-4q-1 0-1.5-.5t-.5-1.5v-12q0-1 .5-1.5t1.5-.5h4zm32 0q1 0 1.5.5t.5 1.5v12q0 1-.5 1.5t-1.5.5h-4q-1 0-1.5-.5t-.5-1.5v-12q0-1 .5-1.5t1.5-.5h4zm32 0q1 0 1.5.5t.5 1.5v12q0 1-.5 1.5t-1.5.5h-4q-1 0-1.5-.5t-.5-1.5v-12q0-1 .5-1.5t1.5-.5h4zm48-8q1 0 1.5.5t.5 1.5v12q0 1-.5 1.5t-1.5.5h-4q-1 0-1.5-.5t-.5-1.5v-12q0-1 .5-1.5t1.5-.5h4zm256 0q1 0 1.5.5t.5 1.5v12q0 1-.5 1.5t-1.5.5h-4q-1 0-1.5-.5t-.5-1.5v-12q0-1 .5-1.5t1.5-.5h4zm-448 0q1 0 1.5.5t.5 1.5v12q0 1-.5 1.5t-1.5.5h-4q-1 0-1.5-.5t-.5-1.5v-12q0-1 .5-1.5t1.5-.5h4zm32 0q1 0 1.5.5t.5 1.5v12q0 1-.5 1.5t-1.5.5h-4q-1 0-1.5-.5t-.5-1.5v-12q0-1 .5-1.5t1.5-.5h4zm32 0q1 0 1.5.5t.5 1.5v12q0 1-.5 1.5t-1.5.5h-4q-1 0-1.5-.5t-.5-1.5v-12q0-1 .5-1.5t1.5-.5h4zm32 0q1 0 1.5.5t.5 1.5v12q0 1-.5 1.5t-1.5.5h-4q-1 0-1.5-.5t-.5-1.5v-12q0-1 .5-1.5t1.5-.5h4zm32 0q1 0 1.5.5t.5 1.5v12q0 1-.5 1.5t-1.5.5h-4q-1 0-1.5-.5t-.5-1.5v-12q0-1 .5-1.5t1.5-.5h4zm32 0q1 0 1.5.5t.5 1.5v12q0 1-.5 1.5t-1.5.5h-4q-1 0-1.5-.5t-.5-1.5v-12q0-1 .5-1.5t1.5-.5h4zm96 0q1 0 1.5.5t.5 1.5v12q0 1-.5 1.5t-1.5.5h-4q-1 0-1.5-.5t-.5-1.5v-12q0-1 .5-1.5t1.5-.5h4zm32 0q1 0 1.5.5t.5 1.5v12q0 1-.5 1.5t-1.5.5h-4q-1 0-1.5-.5t-.5-1.5v-12q0-1 .5-1.5t1.5-.5h4zm96 0q1 0 1.5.5t.5 1.5v12q0 1-.5 1.5t-1.5.5h-4q-1 0-1.5-.5t-.5-1.5v-12q0-1 .5-1.5t1.5-.5h4zm-160 0q1 0 1.5.5t.5 1.5v12q0 1-.5 1.5t-1.5.5h-4q-1 0-1.5-.5t-.5-1.5v-12q0-1 .5-1.5t1.5-.5h4zm96 0q1 0 1.5.5t.5 1.5v12q0 1-.5 1.5t-1.5.5h-4q-1 0-1.5-.5t-.5-1.5v-12q0-1 .5-1.5t1.5-.5h4zm96 0q1 0 1.5.5t.5 1.5v12q0 1-.5 1.5t-1.5.5h-4q-1 0-1.5-.5t-.5-1.5v-12q0-1 .5-1.5t1.5-.5h4zm-64 0q1 0 1.5.5t.5 1.5v12q0 1-.5 1.5t-1.5.5h-4q-1 0-1.5-.5t-.5-1.5v-12q0-1 .5-1.5t1.5-.5h4zm80-16q1 0 1.5.5t.5 1.5v12q0 1-.5 1.5t-1.5.5h-4q-1 0-1.5-.5t-.5-1.5v-12q0-1 .5-1.5t1.5-.5h4zm-128 0q1 0 1.5.5t.5 1.5v12q0 1-.5 1.5t-1.5.5h-4q-1 0-1.5-.5t-.5-1.5v-12q0-1 .5-1.5t1.5-.5h4zm-96 0q1 0 1.5.5t.5 1.5v12q0 1-.5 1.5t-1.5.5h-4q-1 0-1.5-.5t-.5-1.5v-12q0-1 .5-1.5t1.5-.5h4zm32 0q1 0 1.5.5t.5 1.5v12q0 1-.5 1.5t-1.5.5h-4q-1 0-1.5-.5t-.5-1.5v-12q0-1 .5-1.5t1.5-.5h4zm160 0q1 0 1.5.5t.5 1.5v12q0 1-.5 1.5t-1.5.5h-4q-1 0-1.5-.5t-.5-1.5v-12q0-1 .5-1.5t1.5-.5h4zm-288 0q1 0 1.5.5t.5 1.5v12q0 1-.5 1.5t-1.5.5h-4q-1 0-1.5-.5t-.5-1.5v-12q0-1 .5-1.5t1.5-.5h4zm224 0q1 0 1.5.5t.5 1.5v12q0 1-.5 1.5t-1.5.5h-4q-1 0-1.5-.5t-.5-1.5v-12q0-1 .5-1.5t1.5-.5h4zm-320 0q1 0 1.5.5t.5 1.5v12q0 1-.5 1.5t-1.5.5h-4q-1 0-1.5-.5t-.5-1.5v-12q0-1 .5-1.5t1.5-.5h4zm32 0q1 0 1.5.5t.5 1.5v12q0 1-.5 1.5t-1.5.5h-4q-1 0-1.5-.5t-.5-1.5v-12q0-1 .5-1.5t1.5-.5h4zm32 0q1 0 1.5.5t.5 1.5v12q0 1-.5 1.5t-1.5.5h-4q-1 0-1.5-.5t-.5-1.5v-12q0-1 .5-1.5t1.5-.5h4zm64 0q1 0 1.5.5t.5 1.5v12q0 1-.5 1.5t-1.5.5h-4q-1 0-1.5-.5t-.5-1.5v-12q0-1 .5-1.5t1.5-.5h4zm32 0q1 0 1.5.5t.5 1.5v12q0 1-.5 1.5t-1.5.5h-4q-1 0-1.5-.5t-.5-1.5v-12q0-1 .5-1.5t1.5-.5h4zm96 0q1 0 1.5.5t.5 1.5v12q0 1-.5 1.5t-1.5.5h-4q-1 0-1.5-.5t-.5-1.5v-12q0-1 .5-1.5t1.5-.5h4zm96 0q1 0 1.5.5t.5 1.5v12q0 1-.5 1.5t-1.5.5h-4q-1 0-1.5-.5t-.5-1.5v-12q0-1 .5-1.5t1.5-.5h4zm-112-8q1 0 1.5.5t.5 1.5v12q0 1-.5 1.5t-1.5.5h-4q-1 0-1.5-.5t-.5-1.5v-12q0-1 .5-1.5t1.5-.5h4zm-32 0q1 0 1.5.5t.5 1.5v12q0 1-.5 1.5t-1.5.5h-4q-1 0-1.5-.5t-.5-1.5v-12q0-1 .5-1.5t1.5-.5h4zm-192 0q1 0 1.5.5t.5 1.5v12q0 1-.5 1.5t-1.5.5h-4q-1 0-1.5-.5t-.5-1.5v-12q0-1 .5-1.5t1.5-.5h4zm384 0q1 0 1.5.5t.5 1.5v12q0 1-.5 1.5t-1.5.5h-4q-1 0-1.5-.5t-.5-1.5v-12q0-1 .5-1.5t1.5-.5h4zm-64 0q1 0 1.5.5t.5 1.5v12q0 1-.5 1.5t-1.5.5h-4q-1 0-1.5-.5t-.5-1.5v-12q0-1 .5-1.5t1.5-.5h4zm-64 0q1 0 1.5.5t.5 1.5v12q0 1-.5 1.5t-1.5.5h-4q-1 0-1.5-.5t-.5-1.5v-12q0-1 .5-1.5t1.5-.5h4zm-192 0q1 0 1.5.5t.5 1.5v12q0 1-.5 1.5t-1.5.5h-4q-1 0-1.5-.5t-.5-1.5v-12q0-1 .5-1.5t1.5-.5h4zm352 0q1 0 1.5.5t.5 1.5v12q0 1-.5 1.5t-1.5.5h-4q-1 0-1.5-.5t-.5-1.5v-12q0-1 .5-1.5t1.5-.5h4zm-448 0q1 0 1.5.5t.5 1.5v12q0 1-.5 1.5t-1.5.5h-4q-1 0-1.5-.5t-.5-1.5v-12q0-1 .5-1.5t1.5-.5h4zm192 0q1 0 1.5.5t.5 1.5v12q0 1-.5 1.5t-1.5.5h-4q-1 0-1.5-.5t-.5-1.5v-12q0-1 .5-1.5t1.5-.5h4zm192 0q1 0 1.5.5t.5 1.5v12q0 1-.5 1.5t-1.5.5h-4q-1 0-1.5-.5t-.5-1.5v-12q0-1 .5-1.5t1.5-.5h4zm-320 0q1 0 1.5.5t.5 1.5v12q0 1-.5 1.5t-1.5.5h-4q-1 0-1.5-.5t-.5-1.5v-12q0-1 .5-1.5t1.5-.5h4zm64 0q1 0 1.5.5t.5 1.5v12q0 1-.5 1.5t-1.5.5h-4q-1 0-1.5-.5t-.5-1.5v-12q0-1 .5-1.5t1.5-.5h4zm32 0q1 0 1.5.5t.5 1.5v12q0 1-.5 1.5t-1.5.5h-4q-1 0-1.5-.5t-.5-1.5v-12q0-1 .5-1.5t1.5-.5h4zm160 0q1 0 1.5.5t.5 1.5v12q0 1-.5 1.5t-1.5.5h-4q-1 0-1.5-.5t-.5-1.5v-12q0-1 .5-1.5t1.5-.5h4zm-112-16q1 0 1.5.5t.5 1.5v12q0 1-.5 1.5t-1.5.5h-4q-1 0-1.5-.5t-.5-1.5v-12q0-1 .5-1.5t1.5-.5h4zm128 0q1 0 1.5.5t.5 1.5v12q0 1-.5 1.5t-1.5.5h-4q-1 0-1.5-.5t-.5-1.5v-12q0-1 .5-1.5t1.5-.5h4zm-192 0q1 0 1.5.5t.5 1.5v12q0 1-.5 1.5t-1.5.5h-4q-1 0-1.5-.5t-.5-1.5v-12q0-1 .5-1.5t1.5-.5h4zm160 0q1 0 1.5.5t.5 1.5v12q0 1-.5 1.5t-1.5.5h-4q-1 0-1.5-.5t-.5-1.5v-12q0-1 .5-1.5t1.5-.5h4zm-288 0q1 0 1.5.5t.5 1.5v12q0 1-.5 1.5t-1.5.5h-4q-1 0-1.5-.5t-.5-1.5v-12q0-1 .5-1.5t1.5-.5h4zm64 0q1 0 1.5.5t.5 1.5v12q0 1-.5 1.5t-1.5.5h-4q-1 0-1.5-.5t-.5-1.5v-12q0-1 .5-1.5t1.5-.5h4zm320 0q1 0 1.5.5t.5 1.5v12q0 1-.5 1.5t-1.5.5h-4q-1 0-1.5-.5t-.5-1.5v-12q0-1 .5-1.5t1.5-.5h4zm-352 0q1 0 1.5.5t.5 1.5v12q0 1-.5 1.5t-1.5.5h-4q-1 0-1.5-.5t-.5-1.5v-12q0-1 .5-1.5t1.5-.5h4zm192 0q1 0 1.5.5t.5 1.5v12q0 1-.5 1.5t-1.5.5h-4q-1 0-1.5-.5t-.5-1.5v-12q0-1 .5-1.5t1.5-.5h4zm192 0q1 0 1.5.5t.5 1.5v12q0 1-.5 1.5t-1.5.5h-4q-1 0-1.5-.5t-.5-1.5v-12q0-1 .5-1.5t1.5-.5h4zm-256 0q1 0 1.5.5t.5 1.5v12q0 1-.5 1.5t-1.5.5h-4q-1 0-1.5-.5t-.5-1.5v-12q0-1 .5-1.5t1.5-.5h4zm192 0q1 0 1.5.5t.5 1.5v12q0 1-.5 1.5t-1.5.5h-4q-1 0-1.5-.5t-.5-1.5v-12q0-1 .5-1.5t1.5-.5h4zm-256 0q1 0 1.5.5t.5 1.5v12q0 1-.5 1.5t-1.5.5h-4q-1 0-1.5-.5t-.5-1.5v-12q0-1 .5-1.5t1.5-.5h4zm160 0q1 0 1.5.5t.5 1.5v12q0 1-.5 1.5t-1.5.5h-4q-1 0-1.5-.5t-.5-1.5v-12q0-1 .5-1.5t1.5-.5h4zm-112-8q1 0 1.5.5t.5 1.5v12q0 1-.5 1.5t-1.5.5h-4q-1 0-1.5-.5t-.5-1.5v-12q0-1 .5-1.5t1.5-.5h4zm192 0q1 0 1.5.5t.5 1.5v12q0 1-.5 1.5t-1.5.5h-4q-1 0-1.5-.5t-.5-1.5v-12q0-1 .5-1.5t1.5-.5h4zm-96 0q1 0 1.5.5t.5 1.5v12q0 1-.5 1.5t-1.5.5h-4q-1 0-1.5-.5t-.5-1.5v-12q0-1 .5-1.5t1.5-.5h4zm-224 0q1 0 1.5.5t.5 1.5v12q0 1-.5 1.5t-1.5.5h-4q-1 0-1.5-.5t-.5-1.5v-12q0-1 .5-1.5t1.5-.5h4zm192 0q1 0 1.5.5t.5 1.5v12q0 1-.5 1.5t-1.5.5h-4q-1 0-1.5-.5t-.5-1.5v-12q0-1 .5-1.5t1.5-.5h4zm192 0q1 0 1.5.5t.5 1.5v12q0 1-.5 1.5t-1.5.5h-4q-1 0-1.5-.5t-.5-1.5v-12q0-1 .5-1.5t1.5-.5h4zm-320 0q1 0 1.5.5t.5 1.5v12q0 1-.5 1.5t-1.5.5h-4q-1 0-1.5-.5t-.5-1.5v-12q0-1 .5-1.5t1.5-.5h4zm288 0q1 0 1.5.5t.5 1.5v12q0 1-.5 1.5t-1.5.5h-4q-1 0-1.5-.5t-.5-1.5v-12q0-1 .5-1.5t1.5-.5h4zm64 0q1 0 1.5.5t.5 1.5v12q0 1-.5 1.5t-1.5.5h-4q-1 0-1.5-.5t-.5-1.5v-12q0-1 .5-1.5t1.5-.5h4zm-160 0q1 0 1.5.5t.5 1.5v12q0 1-.5 1.5t-1.5.5h-4q-1 0-1.5-.5t-.5-1.5v-12q0-1 .5-1.5t1.5-.5h4zm-224 0q1 0 1.5.5t.5 1.5v12q0 1-.5 1.5t-1.5.5h-4q-1 0-1.5-.5t-.5-1.5v-12q0-1 .5-1.5t1.5-.5h4zm64 0q1 0 1.5.5t.5 1.5v12q0 1-.5 1.5t-1.5.5h-4q-1 0-1.5-.5t-.5-1.5v-12q0-1 .5-1.5t1.5-.5h4zm64 0q1 0 1.5.5t.5 1.5v12q0 1-.5 1.5t-1.5.5h-4q-1 0-1.5-.5t-.5-1.5v-12q0-1 .5-1.5t1.5-.5h4zm128 0q1 0 1.5.5t.5 1.5v12q0 1-.5 1.5t-1.5.5h-4q-1 0-1.5-.5t-.5-1.5v-12q0-1 .5-1.5t1.5-.5h4zm-320 0q1 0 1.5.5t.5 1.5v12q0 1-.5 1.5t-1.5.5h-4q-1 0-1.5-.5t-.5-1.5v-12q0-1 .5-1.5t1.5-.5h4zm400-16q1 0 1.5.5t.5 1.5v12q0 1-.5 1.5t-1.5.5h-4q-1 0-1.5-.5t-.5-1.5v-12q0-1 .5-1.5t1.5-.5h4zm-32 0q1 0 1.5.5t.5 1.5v12q0 1-.5 1.5t-1.5.5h-4q-1 0-1.5-.5t-.5-1.5v-12q0-1 .5-1.5t1.5-.5h4zm-128 0q1 0 1.5.5t.5 1.5v12q0 1-.5 1.5t-1.5.5h-4q-1 0-1.5-.5t-.5-1.5v-12q0-1 .5-1.5t1.5-.5h4zm64 0q1 0 1.5.5t.5 1.5v12q0 1-.5 1.5t-1.5.5h-4q-1 0-1.5-.5t-.5-1.5v-12q0-1 .5-1.5t1.5-.5h4zm-32 0q1 0 1.5.5t.5 1.5v12q0 1-.5 1.5t-1.5.5h-4q-1 0-1.5-.5t-.5-1.5v-12q0-1 .5-1.5t1.5-.5h4zm160 0q1 0 1.5.5t.5 1.5v12q0 1-.5 1.5t-1.5.5h-4q-1 0-1.5-.5t-.5-1.5v-12q0-1 .5-1.5t1.5-.5h4zm-320 0q1 0 1.5.5t.5 1.5v12q0 1-.5 1.5t-1.5.5h-4q-1 0-1.5-.5t-.5-1.5v-12q0-1 .5-1.5t1.5-.5h4zm96 0q1 0 1.5.5t.5 1.5v12q0 1-.5 1.5t-1.5.5h-4q-1 0-1.5-.5t-.5-1.5v-12q0-1 .5-1.5t1.5-.5h4zm-192 0q1 0 1.5.5t.5 1.5v12q0 1-.5 1.5t-1.5.5h-4q-1 0-1.5-.5t-.5-1.5v-12q0-1 .5-1.5t1.5-.5h4zm32 0q1 0 1.5.5t.5 1.5v12q0 1-.5 1.5t-1.5.5h-4q-1 0-1.5-.5t-.5-1.5v-12q0-1 .5-1.5t1.5-.5h4zm32 0q1 0 1.5.5t.5 1.5v12q0 1-.5 1.5t-1.5.5h-4q-1 0-1.5-.5t-.5-1.5v-12q0-1 .5-1.5t1.5-.5h4zm64 0q1 0 1.5.5t.5 1.5v12q0 1-.5 1.5t-1.5.5h-4q-1 0-1.5-.5t-.5-1.5v-12q0-1 .5-1.5t1.5-.5h4zm32 0q1 0 1.5.5t.5 1.5v12q0 1-.5 1.5t-1.5.5h-4q-1 0-1.5-.5t-.5-1.5v-12q0-1 .5-1.5t1.5-.5h4zm-16-8q1 0 1.5.5t.5 1.5v12q0 1-.5 1.5t-1.5.5h-4q-1 0-1.5-.5t-.5-1.5v-12q0-1 .5-1.5t1.5-.5h4zm224 0q1 0 1.5.5t.5 1.5v12q0 1-.5 1.5t-1.5.5h-4q-1 0-1.5-.5t-.5-1.5v-12q0-1 .5-1.5t1.5-.5h4zm-256 0q1 0 1.5.5t.5 1.5v12q0 1-.5 1.5t-1.5.5h-4q-1 0-1.5-.5t-.5-1.5v-12q0-1 .5-1.5t1.5-.5h4zm224 0q1 0 1.5.5t.5 1.5v12q0 1-.5 1.5t-1.5.5h-4q-1 0-1.5-.5t-.5-1.5v-12q0-1 .5-1.5t1.5-.5h4zm-64 0q1 0 1.5.5t.5 1.5v12q0 1-.5 1.5t-1.5.5h-4q-1 0-1.5-.5t-.5-1.5v-12q0-1 .5-1.5t1.5-.5h4zm-32 0q1 0 1.5.5t.5 1.5v12q0 1-.5 1.5t-1.5.5h-4q-1 0-1.5-.5t-.5-1.5v-12q0-1 .5-1.5t1.5-.5h4zm-32 0q1 0 1.5.5t.5 1.5v12q0 1-.5 1.5t-1.5.5h-4q-1 0-1.5-.5t-.5-1.5v-12q0-1 .5-1.5t1.5-.5h4zm-224 0q1 0 1.5.5t.5 1.5v12q0 1-.5 1.5t-1.5.5h-4q-1 0-1.5-.5t-.5-1.5v-12q0-1 .5-1.5t1.5-.5h4zm32 0q1 0 1.5.5t.5 1.5v12q0 1-.5 1.5t-1.5.5h-4q-1 0-1.5-.5t-.5-1.5v-12q0-1 .5-1.5t1.5-.5h4zm416 0q1 0 1.5.5t.5 1.5v12q0 1-.5 1.5t-1.5.5h-4q-1 0-1.5-.5t-.5-1.5v-12q0-1 .5-1.5t1.5-.5h4zm-384 0q1 0 1.5.5t.5 1.5v12q0 1-.5 1.5t-1.5.5h-4q-1 0-1.5-.5t-.5-1.5v-12q0-1 .5-1.5t1.5-.5h4zm256 0q1 0 1.5.5t.5 1.5v12q0 1-.5 1.5t-1.5.5h-4q-1 0-1.5-.5t-.5-1.5v-12q0-1 .5-1.5t1.5-.5h4zm-224 0q1 0 1.5.5t.5 1.5v12q0 1-.5 1.5t-1.5.5h-4q-1 0-1.5-.5t-.5-1.5v-12q0-1 .5-1.5t1.5-.5h4zm96 0q1 0 1.5.5t.5 1.5v12q0 1-.5 1.5t-1.5.5h-4q-1 0-1.5-.5t-.5-1.5v-12q0-1 .5-1.5t1.5-.5h4zm16-16q1 0 1.5.5t.5 1.5v12q0 1-.5 1.5t-1.5.5h-4q-1 0-1.5-.5t-.5-1.5v-12q0-1 .5-1.5t1.5-.5h4zm224 0q1 0 1.5.5t.5 1.5v12q0 1-.5 1.5t-1.5.5h-4q-1 0-1.5-.5t-.5-1.5v-12q0-1 .5-1.5t1.5-.5h4zm-96 0q1 0 1.5.5t.5 1.5v12q0 1-.5 1.5t-1.5.5h-4q-1 0-1.5-.5t-.5-1.5v-12q0-1 .5-1.5t1.5-.5h4zm-96 0q1 0 1.5.5t.5 1.5v12q0 1-.5 1.5t-1.5.5h-4q-1 0-1.5-.5t-.5-1.5v-12q0-1 .5-1.5t1.5-.5h4zm160 0q1 0 1.5.5t.5 1.5v12q0 1-.5 1.5t-1.5.5h-4q-1 0-1.5-.5t-.5-1.5v-12q0-1 .5-1.5t1.5-.5h4zm-320 0q1 0 1.5.5t.5 1.5v12q0 1-.5 1.5t-1.5.5h-4q-1 0-1.5-.5t-.5-1.5v-12q0-1 .5-1.5t1.5-.5h4zm192 0q1 0 1.5.5t.5 1.5v12q0 1-.5 1.5t-1.5.5h-4q-1 0-1.5-.5t-.5-1.5v-12q0-1 .5-1.5t1.5-.5h4zm-128 0q1 0 1.5.5t.5 1.5v12q0 1-.5 1.5t-1.5.5h-4q-1 0-1.5-.5t-.5-1.5v-12q0-1 .5-1.5t1.5-.5h4zm-96 0q1 0 1.5.5t.5 1.5v12q0 1-.5 1.5t-1.5.5h-4q-1 0-1.5-.5t-.5-1.5v-12q0-1 .5-1.5t1.5-.5h4zm272-8q1 0 1.5.5t.5 1.5v12q0 1-.5 1.5t-1.5.5h-4q-1 0-1.5-.5t-.5-1.5v-12q0-1 .5-1.5t1.5-.5h4zm-256 0q1 0 1.5.5t.5 1.5v12q0 1-.5 1.5t-1.5.5h-4q-1 0-1.5-.5t-.5-1.5v-12q0-1 .5-1.5t1.5-.5h4zm352 0q1 0 1.5.5t.5 1.5v12q0 1-.5 1.5t-1.5.5h-4q-1 0-1.5-.5t-.5-1.5v-12q0-1 .5-1.5t1.5-.5h4zm-256 0q1 0 1.5.5t.5 1.5v12q0 1-.5 1.5t-1.5.5h-4q-1 0-1.5-.5t-.5-1.5v-12q0-1 .5-1.5t1.5-.5h4zm32 0q1 0 1.5.5t.5 1.5v12q0 1-.5 1.5t-1.5.5h-4q-1 0-1.5-.5t-.5-1.5v-12q0-1 .5-1.5t1.5-.5h4zm160 0q1 0 1.5.5t.5 1.5v12q0 1-.5 1.5t-1.5.5h-4q-1 0-1.5-.5t-.5-1.5v-12q0-1 .5-1.5t1.5-.5h4zm-224 0q1 0 1.5.5t.5 1.5v12q0 1-.5 1.5t-1.5.5h-4q-1 0-1.5-.5t-.5-1.5v-12q0-1 .5-1.5t1.5-.5h4zm160 0q1 0 1.5.5t.5 1.5v12q0 1-.5 1.5t-1.5.5h-4q-1 0-1.5-.5t-.5-1.5v-12q0-1 .5-1.5t1.5-.5h4zm-288 0q1 0 1.5.5t.5 1.5v12q0 1-.5 1.5t-1.5.5h-4q-1 0-1.5-.5t-.5-1.5v-12q0-1 .5-1.5t1.5-.5h4zm224 0q1 0 1.5.5t.5 1.5v12q0 1-.5 1.5t-1.5.5h-4q-1 0-1.5-.5t-.5-1.5v-12q0-1 .5-1.5t1.5-.5h4zm-128 0q1 0 1.5.5t.5 1.5v12q0 1-.5 1.5t-1.5.5h-4q-1 0-1.5-.5t-.5-1.5v-12q0-1 .5-1.5t1.5-.5h4zm-64 0q1 0 1.5.5t.5 1.5v12q0 1-.5 1.5t-1.5.5h-4q-1 0-1.5-.5t-.5-1.5v-12q0-1 .5-1.5t1.5-.5h4zm336-16q1 0 1.5.5t.5 1.5v12q0 1-.5 1.5t-1.5.5h-4q-1 0-1.5-.5t-.5-1.5v-12q0-1 .5-1.5t1.5-.5h4zm-96 0q1 0 1.5.5t.5 1.5v12q0 1-.5 1.5t-1.5.5h-4q-1 0-1.5-.5t-.5-1.5v-12q0-1 .5-1.5t1.5-.5h4zm32 0q1 0 1.5.5t.5 1.5v12q0 1-.5 1.5t-1.5.5h-4q-1 0-1.5-.5t-.5-1.5v-12q0-1 .5-1.5t1.5-.5h4zm-224 0q1 0 1.5.5t.5 1.5v12q0 1-.5 1.5t-1.5.5h-4q-1 0-1.5-.5t-.5-1.5v-12q0-1 .5-1.5t1.5-.5h4zm320 0q1 0 1.5.5t.5 1.5v12q0 1-.5 1.5t-1.5.5h-4q-1 0-1.5-.5t-.5-1.5v-12q0-1 .5-1.5t1.5-.5h4zm-288 0q1 0 1.5.5t.5 1.5v12q0 1-.5 1.5t-1.5.5h-4q-1 0-1.5-.5t-.5-1.5v-12q0-1 .5-1.5t1.5-.5h4zm32 0q1 0 1.5.5t.5 1.5v12q0 1-.5 1.5t-1.5.5h-4q-1 0-1.5-.5t-.5-1.5v-12q0-1 .5-1.5t1.5-.5h4zm-128 0q1 0 1.5.5t.5 1.5v12q0 1-.5 1.5t-1.5.5h-4q-1 0-1.5-.5t-.5-1.5v-12q0-1 .5-1.5t1.5-.5h4zm160 0q1 0 1.5.5t.5 1.5v12q0 1-.5 1.5t-1.5.5h-4q-1 0-1.5-.5t-.5-1.5v-12q0-1 .5-1.5t1.5-.5h4zm256 0q1 0 1.5.5t.5 1.5v12q0 1-.5 1.5t-1.5.5h-4q-1 0-1.5-.5t-.5-1.5v-12q0-1 .5-1.5t1.5-.5h4zm-96 0q1 0 1.5.5t.5 1.5v12q0 1-.5 1.5t-1.5.5h-4q-1 0-1.5-.5t-.5-1.5v-12q0-1 .5-1.5t1.5-.5h4zm-96 0q1 0 1.5.5t.5 1.5v12q0 1-.5 1.5t-1.5.5h-4q-1 0-1.5-.5t-.5-1.5v-12q0-1 .5-1.5t1.5-.5h4zm-192 0q1 0 1.5.5t.5 1.5v12q0 1-.5 1.5t-1.5.5h-4q-1 0-1.5-.5t-.5-1.5v-12q0-1 .5-1.5t1.5-.5h4zm-16-8q1 0 1.5.5t.5 1.5v12q0 1-.5 1.5t-1.5.5h-4q-1 0-1.5-.5t-.5-1.5v-12q0-1 .5-1.5t1.5-.5h4zm256 0q1 0 1.5.5t.5 1.5v12q0 1-.5 1.5t-1.5.5h-4q-1 0-1.5-.5t-.5-1.5v-12q0-1 .5-1.5t1.5-.5h4zm160 0q1 0 1.5.5t.5 1.5v12q0 1-.5 1.5t-1.5.5h-4q-1 0-1.5-.5t-.5-1.5v-12q0-1 .5-1.5t1.5-.5h4zm-192 0q1 0 1.5.5t.5 1.5v12q0 1-.5 1.5t-1.5.5h-4q-1 0-1.5-.5t-.5-1.5v-12q0-1 .5-1.5t1.5-.5h4zm-128 0q1 0 1.5.5t.5 1.5v12q0 1-.5 1.5t-1.5.5h-4q-1 0-1.5-.5t-.5-1.5v-12q0-1 .5-1.5t1.5-.5h4zm192 0q1 0 1.5.5t.5 1.5v12q0 1-.5 1.5t-1.5.5h-4q-1 0-1.5-.5t-.5-1.5v-12q0-1 .5-1.5t1.5-.5h4zm-256 0q1 0 1.5.5t.5 1.5v12q0 1-.5 1.5t-1.5.5h-4q-1 0-1.5-.5t-.5-1.5v-12q0-1 .5-1.5t1.5-.5h4zm288 0q1 0 1.5.5t.5 1.5v12q0 1-.5 1.5t-1.5.5h-4q-1 0-1.5-.5t-.5-1.5v-12q0-1 .5-1.5t1.5-.5h4zm-128 0q1 0 1.5.5t.5 1.5v12q0 1-.5 1.5t-1.5.5h-4q-1 0-1.5-.5t-.5-1.5v-12q0-1 .5-1.5t1.5-.5h4zm-128 0q1 0 1.5.5t.5 1.5v12q0 1-.5 1.5t-1.5.5h-4q-1 0-1.5-.5t-.5-1.5v-12q0-1 .5-1.5t1.5-.5h4zm-96 0q1 0 1.5.5t.5 1.5v12q0 1-.5 1.5t-1.5.5h-4q-1 0-1.5-.5t-.5-1.5v-12q0-1 .5-1.5t1.5-.5h4zm384 0q1 0 1.5.5t.5 1.5v12q0 1-.5 1.5t-1.5.5h-4q-1 0-1.5-.5t-.5-1.5v-12q0-1 .5-1.5t1.5-.5h4zm-192 0q1 0 1.5.5t.5 1.5v12q0 1-.5 1.5t-1.5.5h-4q-1 0-1.5-.5t-.5-1.5v-12q0-1 .5-1.5t1.5-.5h4zm16-16q1 0 1.5.5t.5 1.5v12q0 1-.5 1.5t-1.5.5h-4q-1 0-1.5-.5t-.5-1.5v-12q0-1 .5-1.5t1.5-.5h4zm-128 0q1 0 1.5.5t.5 1.5v12q0 1-.5 1.5t-1.5.5h-4q-1 0-1.5-.5t-.5-1.5v-12q0-1 .5-1.5t1.5-.5h4zm64 0q1 0 1.5.5t.5 1.5v12q0 1-.5 1.5t-1.5.5h-4q-1 0-1.5-.5t-.5-1.5v-12q0-1 .5-1.5t1.5-.5h4zm256 0q1 0 1.5.5t.5 1.5v12q0 1-.5 1.5t-1.5.5h-4q-1 0-1.5-.5t-.5-1.5v-12q0-1 .5-1.5t1.5-.5h4zm-128 0q1 0 1.5.5t.5 1.5v12q0 1-.5 1.5t-1.5.5h-4q-1 0-1.5-.5t-.5-1.5v-12q0-1 .5-1.5t1.5-.5h4zm-96 0q1 0 1.5.5t.5 1.5v12q0 1-.5 1.5t-1.5.5h-4q-1 0-1.5-.5t-.5-1.5v-12q0-1 .5-1.5t1.5-.5h4zm256 0q1 0 1.5.5t.5 1.5v12q0 1-.5 1.5t-1.5.5h-4q-1 0-1.5-.5t-.5-1.5v-12q0-1 .5-1.5t1.5-.5h4zm-416 0q1 0 1.5.5t.5 1.5v12q0 1-.5 1.5t-1.5.5h-4q-1 0-1.5-.5t-.5-1.5v-12q0-1 .5-1.5t1.5-.5h4zm240-8q1 0 1.5.5t.5 1.5v12q0 1-.5 1.5t-1.5.5h-4q-1 0-1.5-.5t-.5-1.5v-12q0-1 .5-1.5t1.5-.5h4zm-160 0q1 0 1.5.5t.5 1.5v12q0 1-.5 1.5t-1.5.5h-4q-1 0-1.5-.5t-.5-1.5v-12q0-1 .5-1.5t1.5-.5h4zm320 0q1 0 1.5.5t.5 1.5v12q0 1-.5 1.5t-1.5.5h-4q-1 0-1.5-.5t-.5-1.5v-12q0-1 .5-1.5t1.5-.5h4zm-64 0q1 0 1.5.5t.5 1.5v12q0 1-.5 1.5t-1.5.5h-4q-1 0-1.5-.5t-.5-1.5v-12q0-1 .5-1.5t1.5-.5h4zm-64 0q1 0 1.5.5t.5 1.5v12q0 1-.5 1.5t-1.5.5h-4q-1 0-1.5-.5t-.5-1.5v-12q0-1 .5-1.5t1.5-.5h4zm32 0q1 0 1.5.5t.5 1.5v12q0 1-.5 1.5t-1.5.5h-4q-1 0-1.5-.5t-.5-1.5v-12q0-1 .5-1.5t1.5-.5h4zm-96 0q1 0 1.5.5t.5 1.5v12q0 1-.5 1.5t-1.5.5h-4q-1 0-1.5-.5t-.5-1.5v-12q0-1 .5-1.5t1.5-.5h4zm-160 0q1 0 1.5.5t.5 1.5v12q0 1-.5 1.5t-1.5.5h-4q-1 0-1.5-.5t-.5-1.5v-12q0-1 .5-1.5t1.5-.5h4zm96 0q1 0 1.5.5t.5 1.5v12q0 1-.5 1.5t-1.5.5h-4q-1 0-1.5-.5t-.5-1.5v-12q0-1 .5-1.5t1.5-.5h4zm32 0q1 0 1.5.5t.5 1.5v12q0 1-.5 1.5t-1.5.5h-4q-1 0-1.5-.5t-.5-1.5v-12q0-1 .5-1.5t1.5-.5h4zm112-16q1 0 1.5.5t.5 1.5v12q0 1-.5 1.5t-1.5.5h-4q-1 0-1.5-.5t-.5-1.5v-12q0-1 .5-1.5t1.5-.5h4zm-288 0q1 0 1.5.5t.5 1.5v12q0 1-.5 1.5t-1.5.5h-4q-1 0-1.5-.5t-.5-1.5v-12q0-1 .5-1.5t1.5-.5h4zm416 0q1 0 1.5.5t.5 1.5v12q0 1-.5 1.5t-1.5.5h-4q-1 0-1.5-.5t-.5-1.5v-12q0-1 .5-1.5t1.5-.5h4zm-192 0q1 0 1.5.5t.5 1.5v12q0 1-.5 1.5t-1.5.5h-4q-1 0-1.5-.5t-.5-1.5v-12q0-1 .5-1.5t1.5-.5h4zm96 0q1 0 1.5.5t.5 1.5v12q0 1-.5 1.5t-1.5.5h-4q-1 0-1.5-.5t-.5-1.5v-12q0-1 .5-1.5t1.5-.5h4zm64 0q1 0 1.5.5t.5 1.5v12q0 1-.5 1.5t-1.5.5h-4q-1 0-1.5-.5t-.5-1.5v-12q0-1 .5-1.5t1.5-.5h4zm-128 0q1 0 1.5.5t.5 1.5v12q0 1-.5 1.5t-1.5.5h-4q-1 0-1.5-.5t-.5-1.5v-12q0-1 .5-1.5t1.5-.5h4zm96 0q1 0 1.5.5t.5 1.5v12q0 1-.5 1.5t-1.5.5h-4q-1 0-1.5-.5t-.5-1.5v-12q0-1 .5-1.5t1.5-.5h4zm-320 0q1 0 1.5.5t.5 1.5v12q0 1-.5 1.5t-1.5.5h-4q-1 0-1.5-.5t-.5-1.5v-12q0-1 .5-1.5t1.5-.5h4zm64 0q1 0 1.5.5t.5 1.5v12q0 1-.5 1.5t-1.5.5h-4q-1 0-1.5-.5t-.5-1.5v-12q0-1 .5-1.5t1.5-.5h4zm272-8q1 0 1.5.5t.5 1.5v12q0 1-.5 1.5t-1.5.5h-4q-1 0-1.5-.5t-.5-1.5v-12q0-1 .5-1.5t1.5-.5h4zm-128 0q1 0 1.5.5t.5 1.5v12q0 1-.5 1.5t-1.5.5h-4q-1 0-1.5-.5t-.5-1.5v-12q0-1 .5-1.5t1.5-.5h4zm-96 0q1 0 1.5.5t.5 1.5v12q0 1-.5 1.5t-1.5.5h-4q-1 0-1.5-.5t-.5-1.5v-12q0-1 .5-1.5t1.5-.5h4zm256 0q1 0 1.5.5t.5 1.5v12q0 1-.5 1.5t-1.5.5h-4q-1 0-1.5-.5t-.5-1.5v-12q0-1 .5-1.5t1.5-.5h4zm-352 0q1 0 1.5.5t.5 1.5v12q0 1-.5 1.5t-1.5.5h-4q-1 0-1.5-.5t-.5-1.5v-12q0-1 .5-1.5t1.5-.5h4zm64 0q1 0 1.5.5t.5 1.5v12q0 1-.5 1.5t-1.5.5h-4q-1 0-1.5-.5t-.5-1.5v-12q0-1 .5-1.5t1.5-.5h4zm-96 0q1 0 1.5.5t.5 1.5v12q0 1-.5 1.5t-1.5.5h-4q-1 0-1.5-.5t-.5-1.5v-12q0-1 .5-1.5t1.5-.5h4zm416 0q1 0 1.5.5t.5 1.5v12q0 1-.5 1.5t-1.5.5h-4q-1 0-1.5-.5t-.5-1.5v-12q0-1 .5-1.5t1.5-.5h4zm-256 0q1 0 1.5.5t.5 1.5v12q0 1-.5 1.5t-1.5.5h-4q-1 0-1.5-.5t-.5-1.5v-12q0-1 .5-1.5t1.5-.5h4zm32 0q1 0 1.5.5t.5 1.5v12q0 1-.5 1.5t-1.5.5h-4q-1 0-1.5-.5t-.5-1.5v-12q0-1 .5-1.5t1.5-.5h4zm96 0q1 0 1.5.5t.5 1.5v12q0 1-.5 1.5t-1.5.5h-4q-1 0-1.5-.5t-.5-1.5v-12q0-1 .5-1.5t1.5-.5h4zm-240-16q1 0 1.5.5t.5 1.5v12q0 1-.5 1.5t-1.5.5h-4q-1 0-1.5-.5t-.5-1.5v-12q0-1 .5-1.5t1.5-.5h4zm192 0q1 0 1.5.5t.5 1.5v12q0 1-.5 1.5t-1.5.5h-4q-1 0-1.5-.5t-.5-1.5v-12q0-1 .5-1.5t1.5-.5h4zm-128 0q1 0 1.5.5t.5 1.5v12q0 1-.5 1.5t-1.5.5h-4q-1 0-1.5-.5t-.5-1.5v-12q0-1 .5-1.5t1.5-.5h4zm-32 0q1 0 1.5.5t.5 1.5v12q0 1-.5 1.5t-1.5.5h-4q-1 0-1.5-.5t-.5-1.5v-12q0-1 .5-1.5t1.5-.5h4zm256 0q1 0 1.5.5t.5 1.5v12q0 1-.5 1.5t-1.5.5h-4q-1 0-1.5-.5t-.5-1.5v-12q0-1 .5-1.5t1.5-.5h4zm-32 0q1 0 1.5.5t.5 1.5v12q0 1-.5 1.5t-1.5.5h-4q-1 0-1.5-.5t-.5-1.5v-12q0-1 .5-1.5t1.5-.5h4zm-32 0q1 0 1.5.5t.5 1.5v12q0 1-.5 1.5t-1.5.5h-4q-1 0-1.5-.5t-.5-1.5v-12q0-1 .5-1.5t1.5-.5h4zm-112-8q1 0 1.5.5t.5 1.5v12q0 1-.5 1.5t-1.5.5h-4q-1 0-1.5-.5t-.5-1.5v-12q0-1 .5-1.5t1.5-.5h4zm96 0q1 0 1.5.5t.5 1.5v12q0 1-.5 1.5t-1.5.5h-4q-1 0-1.5-.5t-.5-1.5v-12q0-1 .5-1.5t1.5-.5h4zm-256 0q1 0 1.5.5t.5 1.5v12q0 1-.5 1.5t-1.5.5h-4q-1 0-1.5-.5t-.5-1.5v-12q0-1 .5-1.5t1.5-.5h4zm-32 0q1 0 1.5.5t.5 1.5v12q0 1-.5 1.5t-1.5.5h-4q-1 0-1.5-.5t-.5-1.5v-12q0-1 .5-1.5t1.5-.5h4zm448 0q1 0 1.5.5t.5 1.5v12q0 1-.5 1.5t-1.5.5h-4q-1 0-1.5-.5t-.5-1.5v-12q0-1 .5-1.5t1.5-.5h4zm-192 0q1 0 1.5.5t.5 1.5v12q0 1-.5 1.5t-1.5.5h-4q-1 0-1.5-.5t-.5-1.5v-12q0-1 .5-1.5t1.5-.5h4zm-32 0q1 0 1.5.5t.5 1.5v12q0 1-.5 1.5t-1.5.5h-4q-1 0-1.5-.5t-.5-1.5v-12q0-1 .5-1.5t1.5-.5h4zm192 0q1 0 1.5.5t.5 1.5v12q0 1-.5 1.5t-1.5.5h-4q-1 0-1.5-.5t-.5-1.5v-12q0-1 .5-1.5t1.5-.5h4zm-80-16q1 0 1.5.5t.5 1.5v12q0 1-.5 1.5t-1.5.5h-4q-1 0-1.5-.5t-.5-1.5v-12q0-1 .5-1.5t1.5-.5h4zm-256 0q1 0 1.5.5t.5 1.5v12q0 1-.5 1.5t-1.5.5h-4q-1 0-1.5-.5t-.5-1.5v-12q0-1 .5-1.5t1.5-.5h4zm-64 0q1 0 1.5.5t.5 1.5v12q0 1-.5 1.5t-1.5.5h-4q-1 0-1.5-.5t-.5-1.5v-12q0-1 .5-1.5t1.5-.5h4zm384 0q1 0 1.5.5t.5 1.5v12q0 1-.5 1.5t-1.5.5h-4q-1 0-1.5-.5t-.5-1.5v-12q0-1 .5-1.5t1.5-.5h4zm-256 0q1 0 1.5.5t.5 1.5v12q0 1-.5 1.5t-1.5.5h-4q-1 0-1.5-.5t-.5-1.5v-12q0-1 .5-1.5t1.5-.5h4zm-32 0q1 0 1.5.5t.5 1.5v12q0 1-.5 1.5t-1.5.5h-4q-1 0-1.5-.5t-.5-1.5v-12q0-1 .5-1.5t1.5-.5h4zm96 0q1 0 1.5.5t.5 1.5v12q0 1-.5 1.5t-1.5.5h-4q-1 0-1.5-.5t-.5-1.5v-12q0-1 .5-1.5t1.5-.5h4zm48-8q1 0 1.5.5t.5 1.5v12q0 1-.5 1.5t-1.5.5h-4q-1 0-1.5-.5t-.5-1.5v-12q0-1 .5-1.5t1.5-.5h4zm-192 0q1 0 1.5.5t.5 1.5v12q0 1-.5 1.5t-1.5.5h-4q-1 0-1.5-.5t-.5-1.5v-12q0-1 .5-1.5t1.5-.5h4zm288 0q1 0 1.5.5t.5 1.5v12q0 1-.5 1.5t-1.5.5h-4q-1 0-1.5-.5t-.5-1.5v-12q0-1 .5-1.5t1.5-.5h4zm-160 0q1 0 1.5.5t.5 1.5v12q0 1-.5 1.5t-1.5.5h-4q-1 0-1.5-.5t-.5-1.5v-12q0-1 .5-1.5t1.5-.5h4zm32 0q1 0 1.5.5t.5 1.5v12q0 1-.5 1.5t-1.5.5h-4q-1 0-1.5-.5t-.5-1.5v-12q0-1 .5-1.5t1.5-.5h4zm192 0q1 0 1.5.5t.5 1.5v12q0 1-.5 1.5t-1.5.5h-4q-1 0-1.5-.5t-.5-1.5v-12q0-1 .5-1.5t1.5-.5h4zm-128 0q1 0 1.5.5t.5 1.5v12q0 1-.5 1.5t-1.5.5h-4q-1 0-1.5-.5t-.5-1.5v-12q0-1 .5-1.5t1.5-.5h4zm-254-56q10 0 17 7t7 17-7 17-17 7h-1l5-13h7q1 0 2-1t1-2l5-14q1-2 0-3t-3-1h-9l-13 33q-7-2-12.5-8t-5.5-15q0-8 5-14.5t13-8.5l-13 34h5l7-18h4l-7 18h5l6-17q1-2 0-3t-3-1h-4l5-14h1zm15 17-6 14h-4l6-14h4zm-23-97h-32v16h32v-16zm364-24H340q-2 0-3 1t-1 3v32q0 2 1 3t3 1h336q2 0 3-1t1-3v-32q0-2-1-3t-3-1zm56 0h-24q-2 0-3 1t-1 3v24q0 2 1 3t3 1h24q2 0 3-1t1-3v-24q0-2-1-3t-3-1zm-420 0h-32v16h32v-16z"/></svg>
