<svg viewBox="-10 0 1034 1024"><path fill="currentColor" d="m760 224 40 4v568l-40 4h-16l-24-32H304l-24 32h-24l-40-4V228l40-4h504zm-42 548 20 28H286l20-28h412zm-138-36H444q-2 0-3 1t-1 3v16q0 2 1 3t3 1h136q2 0 3-1t1-3v-16q0-2-1-3t-3-1zm128 0h-16q-2 0-3 1t-1 3v16q0 2 1 3t3 1h16q2 0 3-1t1-3v-16q0-2-1-3t-3-1zm-372 0h-32v16h32v-16zm48 0h-32v16h32v-16zm256 8h-8v8h8v-8zm16 0h-8v8h8v-8zm16 0h-8v8h8v-8zm88-456H256l-16 32v368l16 32h504l16-32V320zm-26 384q1 0 1.5.5t.5 1.5v12q0 1-.5 1.5t-1.5.5h-4q-1 0-1.5-.5t-.5-1.5v-12q0-1 .5-1.5t1.5-.5h4zm-448 0q1 0 1.5.5t.5 1.5v12q0 1-.5 1.5t-1.5.5h-4q-1 0-1.5-.5t-.5-1.5v-12q0-1 .5-1.5t1.5-.5h4zm32 0q1 0 1.5.5t.5 1.5v12q0 1-.5 1.5t-1.5.5h-4q-1 0-1.5-.5t-.5-1.5v-12q0-1 .5-1.5t1.5-.5h4zm32 0q1 0 1.5.5t.5 1.5v12q0 1-.5 1.5t-1.5.5h-4q-1 0-1.5-.5t-.5-1.5v-12q0-1 .5-1.5t1.5-.5h4zm32 0q1 0 1.5.5t.5 1.5v12q0 1-.5 1.5t-1.5.5h-4q-1 0-1.5-.5t-.5-1.5v-12q0-1 .5-1.5t1.5-.5h4zm32 0q1 0 1.5.5t.5 1.5v12q0 1-.5 1.5t-1.5.5h-4q-1 0-1.5-.5t-.5-1.5v-12q0-1 .5-1.5t1.5-.5h4zm32 0q1 0 1.5.5t.5 1.5v12q0 1-.5 1.5t-1.5.5h-4q-1 0-1.5-.5t-.5-1.5v-12q0-1 .5-1.5t1.5-.5h4zm96 0q1 0 1.5.5t.5 1.5v12q0 1-.5 1.5t-1.5.5h-4q-1 0-1.5-.5t-.5-1.5v-12q0-1 .5-1.5t1.5-.5h4zm96 0q1 0 1.5.5t.5 1.5v12q0 1-.5 1.5t-1.5.5h-4q-1 0-1.5-.5t-.5-1.5v-12q0-1 .5-1.5t1.5-.5h4zm-160 0q1 0 1.5.5t.5 1.5v12q0 1-.5 1.5t-1.5.5h-4q-1 0-1.5-.5t-.5-1.5v-12q0-1 .5-1.5t1.5-.5h4zm96 0q1 0 1.5.5t.5 1.5v12q0 1-.5 1.5t-1.5.5h-4q-1 0-1.5-.5t-.5-1.5v-12q0-1 .5-1.5t1.5-.5h4zm96 0q1 0 1.5.5t.5 1.5v12q0 1-.5 1.5t-1.5.5h-4q-1 0-1.5-.5t-.5-1.5v-12q0-1 .5-1.5t1.5-.5h4zm-160 0q1 0 1.5.5t.5 1.5v12q0 1-.5 1.5t-1.5.5h-4q-1 0-1.5-.5t-.5-1.5v-12q0-1 .5-1.5t1.5-.5h4zm96 0q1 0 1.5.5t.5 1.5v12q0 1-.5 1.5t-1.5.5h-4q-1 0-1.5-.5t-.5-1.5v-12q0-1 .5-1.5t1.5-.5h4zm96 0q1 0 1.5.5t.5 1.5v12q0 1-.5 1.5t-1.5.5h-4q-1 0-1.5-.5t-.5-1.5v-12q0-1 .5-1.5t1.5-.5h4zm-48-16q1 0 1.5.5t.5 1.5v12q0 1-.5 1.5t-1.5.5h-4q-1 0-1.5-.5t-.5-1.5v-12q0-1 .5-1.5t1.5-.5h4zm-352 0q1 0 1.5.5t.5 1.5v12q0 1-.5 1.5t-1.5.5h-4q-1 0-1.5-.5t-.5-1.5v-12q0-1 .5-1.5t1.5-.5h4zm32 0q1 0 1.5.5t.5 1.5v12q0 1-.5 1.5t-1.5.5h-4q-1 0-1.5-.5t-.5-1.5v-12q0-1 .5-1.5t1.5-.5h4zm32 0q1 0 1.5.5t.5 1.5v12q0 1-.5 1.5t-1.5.5h-4q-1 0-1.5-.5t-.5-1.5v-12q0-1 .5-1.5t1.5-.5h4zm32 0q1 0 1.5.5t.5 1.5v12q0 1-.5 1.5t-1.5.5h-4q-1 0-1.5-.5t-.5-1.5v-12q0-1 .5-1.5t1.5-.5h4zm32 0q1 0 1.5.5t.5 1.5v12q0 1-.5 1.5t-1.5.5h-4q-1 0-1.5-.5t-.5-1.5v-12q0-1 .5-1.5t1.5-.5h4zm32 0q1 0 1.5.5t.5 1.5v12q0 1-.5 1.5t-1.5.5h-4q-1 0-1.5-.5t-.5-1.5v-12q0-1 .5-1.5t1.5-.5h4zm96 0q1 0 1.5.5t.5 1.5v12q0 1-.5 1.5t-1.5.5h-4q-1 0-1.5-.5t-.5-1.5v-12q0-1 .5-1.5t1.5-.5h4zm160 0q1 0 1.5.5t.5 1.5v12q0 1-.5 1.5t-1.5.5h-4q-1 0-1.5-.5t-.5-1.5v-12q0-1 .5-1.5t1.5-.5h4zm-224 0q1 0 1.5.5t.5 1.5v12q0 1-.5 1.5t-1.5.5h-4q-1 0-1.5-.5t-.5-1.5v-12q0-1 .5-1.5t1.5-.5h4zm96 0q1 0 1.5.5t.5 1.5v12q0 1-.5 1.5t-1.5.5h-4q-1 0-1.5-.5t-.5-1.5v-12q0-1 .5-1.5t1.5-.5h4zm96 0q1 0 1.5.5t.5 1.5v12q0 1-.5 1.5t-1.5.5h-4q-1 0-1.5-.5t-.5-1.5v-12q0-1 .5-1.5t1.5-.5h4zm-160 0q1 0 1.5.5t.5 1.5v12q0 1-.5 1.5t-1.5.5h-4q-1 0-1.5-.5t-.5-1.5v-12q0-1 .5-1.5t1.5-.5h4zm96 0q1 0 1.5.5t.5 1.5v12q0 1-.5 1.5t-1.5.5h-4q-1 0-1.5-.5t-.5-1.5v-12q0-1 .5-1.5t1.5-.5h4zm-208-8q1 0 1.5.5t.5 1.5v12q0 1-.5 1.5t-1.5.5h-4q-1 0-1.5-.5t-.5-1.5v-12q0-1 .5-1.5t1.5-.5h4zm192 0q1 0 1.5.5t.5 1.5v12q0 1-.5 1.5t-1.5.5h-4q-1 0-1.5-.5t-.5-1.5v-12q0-1 .5-1.5t1.5-.5h4zm96 0q1 0 1.5.5t.5 1.5v12q0 1-.5 1.5t-1.5.5h-4q-1 0-1.5-.5t-.5-1.5v-12q0-1 .5-1.5t1.5-.5h4zm32 0q1 0 1.5.5t.5 1.5v12q0 1-.5 1.5t-1.5.5h-4q-1 0-1.5-.5t-.5-1.5v-12q0-1 .5-1.5t1.5-.5h4zm-448 0q1 0 1.5.5t.5 1.5v12q0 1-.5 1.5t-1.5.5h-4q-1 0-1.5-.5t-.5-1.5v-12q0-1 .5-1.5t1.5-.5h4zm32 0q1 0 1.5.5t.5 1.5v12q0 1-.5 1.5t-1.5.5h-4q-1 0-1.5-.5t-.5-1.5v-12q0-1 .5-1.5t1.5-.5h4zm32 0q1 0 1.5.5t.5 1.5v12q0 1-.5 1.5t-1.5.5h-4q-1 0-1.5-.5t-.5-1.5v-12q0-1 .5-1.5t1.5-.5h4zm32 0q1 0 1.5.5t.5 1.5v12q0 1-.5 1.5t-1.5.5h-4q-1 0-1.5-.5t-.5-1.5v-12q0-1 .5-1.5t1.5-.5h4zm64 0q1 0 1.5.5t.5 1.5v12q0 1-.5 1.5t-1.5.5h-4q-1 0-1.5-.5t-.5-1.5v-12q0-1 .5-1.5t1.5-.5h4zm96 0q1 0 1.5.5t.5 1.5v12q0 1-.5 1.5t-1.5.5h-4q-1 0-1.5-.5t-.5-1.5v-12q0-1 .5-1.5t1.5-.5h4zm96 0q1 0 1.5.5t.5 1.5v12q0 1-.5 1.5t-1.5.5h-4q-1 0-1.5-.5t-.5-1.5v-12q0-1 .5-1.5t1.5-.5h4zm-160 0q1 0 1.5.5t.5 1.5v12q0 1-.5 1.5t-1.5.5h-4q-1 0-1.5-.5t-.5-1.5v-12q0-1 .5-1.5t1.5-.5h4zm96 0q1 0 1.5.5t.5 1.5v12q0 1-.5 1.5t-1.5.5h-4q-1 0-1.5-.5t-.5-1.5v-12q0-1 .5-1.5t1.5-.5h4zm96 0q1 0 1.5.5t.5 1.5v12q0 1-.5 1.5t-1.5.5h-4q-1 0-1.5-.5t-.5-1.5v-12q0-1 .5-1.5t1.5-.5h4zm-160 0q1 0 1.5.5t.5 1.5v12q0 1-.5 1.5t-1.5.5h-4q-1 0-1.5-.5t-.5-1.5v-12q0-1 .5-1.5t1.5-.5h4zm18-8v6q0 1-.5 1.5t-1.5.5h-4q-1 0-1.5-.5t-.5-1.5v-6h8zm-162-8q1 0 1.5.5t.5 1.5v12q0 1-.5 1.5t-1.5.5h-4q-1 0-1.5-.5t-.5-1.5v-12q0-1 .5-1.5t1.5-.5h4zm32 0q1 0 1.5.5t.5 1.5v12q0 1-.5 1.5t-1.5.5h-4q-1 0-1.5-.5t-.5-1.5v-12q0-1 .5-1.5t1.5-.5h4zm34 8v6q0 1-.5 1.5t-1.5.5h-4q-1 0-1.5-.5t-.5-1.5v-6h8zm32 0v6q0 1-.5 1.5t-1.5.5h-4q-1 0-1.5-.5t-.5-1.5v-6h8zm96 0v6q0 1-.5 1.5t-1.5.5h-4q-1 0-1.5-.5t-.5-1.5v-6h8zm94-8q1 0 1.5.5t.5 1.5v12q0 1-.5 1.5t-1.5.5h-4q-1 0-1.5-.5t-.5-1.5v-12q0-1 .5-1.5t1.5-.5h4zm-352 0q1 0 1.5.5t.5 1.5v12q0 1-.5 1.5t-1.5.5h-4q-1 0-1.5-.5t-.5-1.5v-12q0-1 .5-1.5t1.5-.5h4zm32 0q1 0 1.5.5t.5 1.5v12q0 1-.5 1.5t-1.5.5h-4q-1 0-1.5-.5t-.5-1.5v-12q0-1 .5-1.5t1.5-.5h4zm288 0q1 0 1.5.5t.5 1.5v12q0 1-.5 1.5t-1.5.5h-4q-1 0-1.5-.5t-.5-1.5v-12q0-1 .5-1.5t1.5-.5h4zm96 0q1 0 1.5.5t.5 1.5v12q0 1-.5 1.5t-1.5.5h-4q-1 0-1.5-.5t-.5-1.5v-12q0-1 .5-1.5t1.5-.5h4zm-222 8v6q0 1-.5 1.5t-1.5.5h-4q-1 0-1.5-.5t-.5-1.5v-6h8zm96 0v6q0 1-.5 1.5t-1.5.5h-4q-1 0-1.5-.5t-.5-1.5v-6h8zm94-8q1 0 1.5.5t.5 1.5v12q0 1-.5 1.5t-1.5.5h-4q-1 0-1.5-.5t-.5-1.5v-12q0-1 .5-1.5t1.5-.5h4zm-400-8q1 0 1.5.5t.5 1.5v12q0 1-.5 1.5t-1.5.5h-4q-1 0-1.5-.5t-.5-1.5v-12q0-1 .5-1.5t1.5-.5h4zm448 0q1 0 1.5.5t.5 1.5v12q0 1-.5 1.5t-1.5.5h-4q-1 0-1.5-.5t-.5-1.5v-12q0-1 .5-1.5t1.5-.5h4zm-416 0q1 0 1.5.5t.5 1.5v12q0 1-.5 1.5t-1.5.5h-4q-1 0-1.5-.5t-.5-1.5v-12q0-1 .5-1.5t1.5-.5h4zm32 0q1 0 1.5.5t.5 1.5v12q0 1-.5 1.5t-1.5.5h-4q-1 0-1.5-.5t-.5-1.5v-12q0-1 .5-1.5t1.5-.5h4zm32 0q1 0 1.5.5t.5 1.5v12q0 1-.5 1.5t-1.5.5h-4q-1 0-1.5-.5t-.5-1.5v-12q0-1 .5-1.5t1.5-.5h4zm256 0q1 0 1.5.5t.5 1.5v12q0 1-.5 1.5t-1.5.5h-4q-1 0-1.5-.5t-.5-1.5v-12q0-1 .5-1.5t1.5-.5h4zm32 0q1 0 1.5.5t.5 1.5v12q0 1-.5 1.5t-1.5.5h-4q-1 0-1.5-.5t-.5-1.5v-12q0-1 .5-1.5t1.5-.5h4zm32 0q1 0 1.5.5t.5 1.5v12q0 1-.5 1.5t-1.5.5h-4q-1 0-1.5-.5t-.5-1.5v-12q0-1 .5-1.5t1.5-.5h4zm-122 4q2 0 3 1t1 3-1 3.5-3 1.5l-1-.5-1-.5v4h-2v-12h2v1q0-1 1-1h1zm-123-3v3h3v-3h3v3h2v2h-2v4.5l1 .5 1-1v3h-2l-2-1-1-2v-4h-3v4.5l1 .5 1-1v3h-2l-2-1-1-2v-4h-1v-2h1v-3h3zm-37 2q2 0 3 1.5t1 3.5v1h-6l1.5 1.5 1.5.5 1.5-.5.5-.5v2l-1 .5-2 .5q-2 0-3-1.5t-1-3.5 1-3.5 3-1.5zm22-3v11h1v-1 3h-1q-2 0-2.5-1t-.5-2v-10h3zm51 3q1 0 1.5.5l.5.5v2h-2l-1.5.5-.5 1.5.5 2 1.5 1 1.5-.5.5-.5v2q0 1-.5 1H493q-2 0-3.5-1.5T488 632t1.5-3.5 3.5-1.5zm-45 0q2 0 3 1.5t1 3.5v1h-6l1.5 1.5 1.5.5 1.5-.5.5-.5v2l-1 .5-2 .5q-2 0-3-1.5t-1-3.5 1-3.5 3-1.5zm83-3v13h-3v-1l-.5.5-1.5.5q-2 0-3-1.5t-1-3.5 1-3.5 3-1.5l1 .5 1 .5v-4h3zm-48 3q2 0 3 1t1 3v6h-3v-1l-.5.5-1.5.5-2-1-1-2 1-2 2-1h2q0-1-.5-1H480v-2l1-.5 2-.5zm27 0q2 0 3 1t1 3v6h-3v-1l-.5.5-1.5.5-2-1-1-2 1-2 2-1h2q0-1-.5-1H507v-2l1-.5 2-.5zm55 1q1 0 2 1t1 3v1h-6q0 1 1 1.5t2 .5h3v1q-1 0-1.5.5t-1.5.5q-2 0-3-1.5t-1-3.5 1-3 3-1zm35 0h2v2q0-1-.5-1H600l-1.5.5-.5.5q0 1 .5 1h1.5q1 1 2 1.5t1 1.5-1 2-2 1-2-.5l-1-.5v-2q0 1 1 1h2.5l.5-1-.5-.5-1.5-.5-1.5-.5-.5-2.5q0-1 .5-1.5t2.5-.5zm-43-3v3h2v1h-2v5q0 1 .5 1h1.5v2h-1l-1.5-1-.5-2v-5h-2v-1h2v-3h1zm51 3q2 0 3 1t1 3v1h-6q0 1 1 1.5t2 .5h2v1l-1 .5-1 .5q-2 0-3.5-1.5T604 632t1.5-3 2.5-1zm-181 0 2 5 1-5h2l2 5 1-5h3l-3 9h-2l-2-6-1 6h-3l-2-9h2zm73-4v7l2-3h3l-3 4 3 5h-3l-2-4v4h-3v-13h3zm-93 0v5h5v-5h2v13h-2v-6h-5v6h-3v-13h3zm113 4h1v2h-1q-1 0-1.5.5l-.5.5v6h-2v-9h2v1q1-1 1.5-1h.5zm-46-4q2 0 3 1t1 3-1 3.5-3 1.5h-2v4h-3v-13h5zm69 0v2h-6v3h6v2h-6v4h6v2h-7v-13h7zm31 4h1v1h-1q-1 0-1.5.5t-.5 1.5v6h-2v-9h2v1q0-1 .5-1h1.5zm-24 0q1 0 2 .5t1 2.5v6h-2v-6q0-1-.5-1.5t-1.5-.5-1.5.5-.5 1.5v6h-2v-9h2v1q0-1 1-1h2zm44 0v9h-1v-9h1zm-4 0h1v1h-1q-1 0-1.5.5t-.5 1.5v6h-2v-9h2v1q0-1 1-1h1zm-10 1-1 .5-1 .5v4q0 1 1 1h1q1 0 2-.5t1-2.5q0-1-1-2t-2-1zm-54 1-.5.5-.5 1.5.5 2 .5 1q1 0 1.5-.5l.5-.5v-3q0-1-.5-1H526zm39-1q-1 0-2 .5t-1 1.5h5q0-1-.5-1.5t-1.5-.5zm43 0q-1 0-1.5.5t-.5 1.5h4q0-1-.5-1.5t-1.5-.5zm-134-3h-2v4h2q1 0 1.5-.5t.5-1.5-.5-1.5-1.5-.5zm148-18q1 0 1.5.5t.5 1.5v12q0 1-.5 1.5t-1.5.5h-4q-1 0-1.5-.5t-.5-1.5v-12q0-1 .5-1.5t1.5-.5h4zm-224 0q1 0 1.5.5t.5 1.5v12q0 1-.5 1.5t-1.5.5h-4q-1 0-1.5-.5t-.5-1.5v-12q0-1 .5-1.5t1.5-.5h4zm288 0q1 0 1.5.5t.5 1.5v12q0 1-.5 1.5t-1.5.5h-4q-1 0-1.5-.5t-.5-1.5v-12q0-1 .5-1.5t1.5-.5h4zm-384 0q1 0 1.5.5t.5 1.5v12q0 1-.5 1.5t-1.5.5h-4q-1 0-1.5-.5t-.5-1.5v-12q0-1 .5-1.5t1.5-.5h4zm416 0q1 0 1.5.5t.5 1.5v12q0 1-.5 1.5t-1.5.5h-4q-1 0-1.5-.5t-.5-1.5v-12q0-1 .5-1.5t1.5-.5h4zm-384 0q1 0 1.5.5t.5 1.5v12q0 1-.5 1.5t-1.5.5h-4q-1 0-1.5-.5t-.5-1.5v-12q0-1 .5-1.5t1.5-.5h4zm320 0q1 0 1.5.5t.5 1.5v12q0 1-.5 1.5t-1.5.5h-4q-1 0-1.5-.5t-.5-1.5v-12q0-1 .5-1.5t1.5-.5h4zm-288 0q1 0 1.5.5t.5 1.5v12q0 1-.5 1.5t-1.5.5h-4q-1 0-1.5-.5t-.5-1.5v-12q0-1 .5-1.5t1.5-.5h4zm64 0q1 0 1.5.5t.5 1.5v12h-8v-12q0-1 .5-1.5t1.5-.5h4zm32 0q1 0 1.5.5t.5 1.5v12h-8v-12q0-1 .5-1.5t1.5-.5h4zm32-24q1 0 1.5.5t.5 1.5v36h-8v-36q0-1 .5-1.5t1.5-.5h4zm32 24q1 0 1.5.5t.5 1.5v12h-8v-12q0-1 .5-1.5t1.5-.5h4zm32 0q1 0 1.5.5t.5 1.5v12h-8v-12q0-1 .5-1.5t1.5-.5h4zm32 0q1 0 1.5.5t.5 1.5v12h-8v-12q0-1 .5-1.5t1.5-.5h4zm48-8q1 0 1.5.5t.5 1.5v12q0 1-.5 1.5t-1.5.5h-4q-1 0-1.5-.5t-.5-1.5v-12q0-1 .5-1.5t1.5-.5h4zm32 0q1 0 1.5.5t.5 1.5v12q0 1-.5 1.5t-1.5.5h-4q-1 0-1.5-.5t-.5-1.5v-12q0-1 .5-1.5t1.5-.5h4zm32 0q1 0 1.5.5t.5 1.5v12q0 1-.5 1.5t-1.5.5h-4q-1 0-1.5-.5t-.5-1.5v-12q0-1 .5-1.5t1.5-.5h4zm-96 0q1 0 1.5.5t.5 1.5v12q0 1-.5 1.5t-1.5.5h-4q-1 0-1.5-.5t-.5-1.5v-12q0-1 .5-1.5t1.5-.5h4zm-96 0q1 0 1.5.5t.5 1.5v12q0 1-.5 1.5t-1.5.5h-4q-1 0-1.5-.5t-.5-1.5v-12q0-1 .5-1.5t1.5-.5h4zm32 0q1 0 1.5.5t.5 1.5v12q0 1-.5 1.5t-1.5.5h-4q-1 0-1.5-.5t-.5-1.5v-12q0-1 .5-1.5t1.5-.5h4zm-256 0q1 0 1.5.5t.5 1.5v12q0 1-.5 1.5t-1.5.5h-4q-1 0-1.5-.5t-.5-1.5v-12q0-1 .5-1.5t1.5-.5h4zm160 0q1 0 1.5.5t.5 1.5v12q0 1-.5 1.5t-1.5.5h-4q-1 0-1.5-.5t-.5-1.5v-12q0-1 .5-1.5t1.5-.5h4zm32 0q1 0 1.5.5t.5 1.5v12q0 1-.5 1.5t-1.5.5h-4q-1 0-1.5-.5t-.5-1.5v-12q0-1 .5-1.5t1.5-.5h4zm256-8q1 0 1.5.5t.5 1.5v20q0 1-.5 1.5t-1.5.5h-4q-1 0-1.5-.5t-.5-1.5v-20q0-1 .5-1.5t1.5-.5h4zm-416 8q1 0 1.5.5t.5 1.5v12q0 1-.5 1.5t-1.5.5h-4q-1 0-1.5-.5t-.5-1.5v-12q0-1 .5-1.5t1.5-.5h4zm32 0q1 0 1.5.5t.5 1.5v12q0 1-.5 1.5t-1.5.5h-4q-1 0-1.5-.5t-.5-1.5v-12q0-1 .5-1.5t1.5-.5h4zm64 0q1 0 1.5.5t.5 1.5v12q0 1-.5 1.5t-1.5.5h-4q-1 0-1.5-.5t-.5-1.5v-12q0-1 .5-1.5t1.5-.5h4zm-32 0q1 0 1.5.5t.5 1.5v12q0 1-.5 1.5t-1.5.5h-4q-1 0-1.5-.5t-.5-1.5v-12q0-1 .5-1.5t1.5-.5h4zm192 0q1 0 1.5.5t.5 1.5v12q0 1-.5 1.5t-1.5.5h-4q-1 0-1.5-.5t-.5-1.5v-12q0-1 .5-1.5t1.5-.5h4zm112-16q1 0 1.5.5t.5 1.5v12q0 1-.5 1.5t-1.5.5h-4q-1 0-1.5-.5t-.5-1.5v-12q0-1 .5-1.5t1.5-.5h4zm-96 0q1 0 1.5.5t.5 1.5v12q0 1-.5 1.5t-1.5.5h-4q-1 0-1.5-.5t-.5-1.5v-12q0-1 .5-1.5t1.5-.5h4zm64 0q1 0 1.5.5t.5 1.5v12q0 1-.5 1.5t-1.5.5h-4q-1 0-1.5-.5t-.5-1.5v-12q0-1 .5-1.5t1.5-.5h4zm-256 0q1 0 1.5.5t.5 1.5v12q0 1-.5 1.5t-1.5.5h-4q-1 0-1.5-.5t-.5-1.5v-12q0-1 .5-1.5t1.5-.5h4zm-64 0q1 0 1.5.5t.5 1.5v12q0 1-.5 1.5t-1.5.5h-4q-1 0-1.5-.5t-.5-1.5v-12q0-1 .5-1.5t1.5-.5h4zm192 0q1 0 1.5.5t.5 1.5v12q0 1-.5 1.5t-1.5.5h-4q-1 0-1.5-.5t-.5-1.5v-12q0-1 .5-1.5t1.5-.5h4zm-224 0q1 0 1.5.5t.5 1.5v12q0 1-.5 1.5t-1.5.5h-4q-1 0-1.5-.5t-.5-1.5v-12q0-1 .5-1.5t1.5-.5h4zm416 0q1 0 1.5.5t.5 1.5v12q0 1-.5 1.5t-1.5.5h-4q-1 0-1.5-.5t-.5-1.5v-12q0-1 .5-1.5t1.5-.5h4zm-160 0q1 0 1.5.5t.5 1.5v12q0 1-.5 1.5t-1.5.5h-4q-1 0-1.5-.5t-.5-1.5v-12q0-1 .5-1.5t1.5-.5h4zm-128 0q1 0 1.5.5t.5 1.5v12q0 1-.5 1.5t-1.5.5h-4q-1 0-1.5-.5t-.5-1.5v-12q0-1 .5-1.5t1.5-.5h4zm192 0q1 0 1.5.5t.5 1.5v12q0 1-.5 1.5t-1.5.5h-4q-1 0-1.5-.5t-.5-1.5v-12q0-1 .5-1.5t1.5-.5h4zm-256 0q1 0 1.5.5t.5 1.5v12q0 1-.5 1.5t-1.5.5h-4q-1 0-1.5-.5t-.5-1.5v-12q0-1 .5-1.5t1.5-.5h4zm96 0q1 0 1.5.5t.5 1.5v12q0 1-.5 1.5t-1.5.5h-4q-1 0-1.5-.5t-.5-1.5v-12q0-1 .5-1.5t1.5-.5h4zm48-8q1 0 1.5.5t.5 1.5v12q0 1-.5 1.5t-1.5.5h-4q-1 0-1.5-.5t-.5-1.5v-12q0-1 .5-1.5t1.5-.5h4zm-224 0q1 0 1.5.5t.5 1.5v12q0 1-.5 1.5t-1.5.5h-4q-1 0-1.5-.5t-.5-1.5v-12q0-1 .5-1.5t1.5-.5h4zm320-24q1 0 1.5.5t.5 1.5v36q0 1-.5 1.5t-1.5.5h-4q-1 0-1.5-.5t-.5-1.5v-36q0-1 .5-1.5t1.5-.5h4zm-128 0q1 0 1.5.5t.5 1.5v36q0 1-.5 1.5t-1.5.5h-4q-1 0-1.5-.5t-.5-1.5v-36q0-1 .5-1.5t1.5-.5h4zm96 24q1 0 1.5.5t.5 1.5v12q0 1-.5 1.5t-1.5.5h-4q-1 0-1.5-.5t-.5-1.5v-12q0-1 .5-1.5t1.5-.5h4zm-192-32q1 0 1.5.5t.5 1.5v44q0 1-.5 1.5t-1.5.5h-4q-1 0-1.5-.5t-.5-1.5v-44q0-1 .5-1.5t1.5-.5h4zm320 32q1 0 1.5.5t.5 1.5v12q0 1-.5 1.5t-1.5.5h-4q-1 0-1.5-.5t-.5-1.5v-12q0-1 .5-1.5t1.5-.5h4zm-256 0q1 0 1.5.5t.5 1.5v12q0 1-.5 1.5t-1.5.5h-4q-1 0-1.5-.5t-.5-1.5v-12q0-1 .5-1.5t1.5-.5h4zm224 0q1 0 1.5.5t.5 1.5v12q0 1-.5 1.5t-1.5.5h-4q-1 0-1.5-.5t-.5-1.5v-12q0-1 .5-1.5t1.5-.5h4zm-352 0q1 0 1.5.5t.5 1.5v12q0 1-.5 1.5t-1.5.5h-4q-1 0-1.5-.5t-.5-1.5v-12q0-1 .5-1.5t1.5-.5h4zm32 0q1 0 1.5.5t.5 1.5v12q0 1-.5 1.5t-1.5.5h-4q-1 0-1.5-.5t-.5-1.5v-12q0-1 .5-1.5t1.5-.5h4zm288 0q1 0 1.5.5t.5 1.5v12q0 1-.5 1.5t-1.5.5h-4q-1 0-1.5-.5t-.5-1.5v-12q0-1 .5-1.5t1.5-.5h4zm-96 0q1 0 1.5.5t.5 1.5v12q0 1-.5 1.5t-1.5.5h-4q-1 0-1.5-.5t-.5-1.5v-12q0-1 .5-1.5t1.5-.5h4zm-128 0q1 0 1.5.5t.5 1.5v12q0 1-.5 1.5t-1.5.5h-4q-1 0-1.5-.5t-.5-1.5v-12q0-1 .5-1.5t1.5-.5h4zm320-8q1 0 1.5.5t.5 1.5v12q0 1-.5 1.5t-1.5.5h-4q-1 0-1.5-.5t-.5-1.5v-12q0-1 .5-1.5t1.5-.5h4zm-144-8q1 0 1.5.5t.5 1.5v12q0 1-.5 1.5t-1.5.5h-4q-1 0-1.5-.5t-.5-1.5v-12q0-1 .5-1.5t1.5-.5h4zm-160 0q1 0 1.5.5t.5 1.5v12q0 1-.5 1.5t-1.5.5h-4q-1 0-1.5-.5t-.5-1.5v-12q0-1 .5-1.5t1.5-.5h4zm96-24q1 0 1.5.5t.5 1.5v36q0 1-.5 1.5t-1.5.5h-4q-1 0-1.5-.5t-.5-1.5v-36q0-1 .5-1.5t1.5-.5h4zm-224 24q1 0 1.5.5t.5 1.5v12q0 1-.5 1.5t-1.5.5h-4q-1 0-1.5-.5t-.5-1.5v-12q0-1 .5-1.5t1.5-.5h4zm384 0q1 0 1.5.5t.5 1.5v12q0 1-.5 1.5t-1.5.5h-4q-1 0-1.5-.5t-.5-1.5v-12q0-1 .5-1.5t1.5-.5h4zm-128 0q1 0 1.5.5t.5 1.5v12q0 1-.5 1.5t-1.5.5h-4q-1 0-1.5-.5t-.5-1.5v-12q0-1 .5-1.5t1.5-.5h4zm96-24q1 0 1.5.5t.5 1.5v36q0 1-.5 1.5t-1.5.5h-4q-1 0-1.5-.5t-.5-1.5v-36q0-1 .5-1.5t1.5-.5h4zm-160 24q1 0 1.5.5t.5 1.5v12q0 1-.5 1.5t-1.5.5h-4q-1 0-1.5-.5t-.5-1.5v-12q0-1 .5-1.5t1.5-.5h4zm-32 0q1 0 1.5.5t.5 1.5v12q0 1-.5 1.5t-1.5.5h-4q-1 0-1.5-.5t-.5-1.5v-12q0-1 .5-1.5t1.5-.5h4zm256-24q1 0 1.5.5t.5 1.5v36q0 1-.5 1.5t-1.5.5h-4q-1 0-1.5-.5t-.5-1.5v-36q0-1 .5-1.5t1.5-.5h4zm-352 24q1 0 1.5.5t.5 1.5v12q0 1-.5 1.5t-1.5.5h-4q-1 0-1.5-.5t-.5-1.5v-12q0-1 .5-1.5t1.5-.5h4zm-32 0q1 0 1.5.5t.5 1.5v12q0 1-.5 1.5t-1.5.5h-4q-1 0-1.5-.5t-.5-1.5v-12q0-1 .5-1.5t1.5-.5h4zm64 0q1 0 1.5.5t.5 1.5v12q0 1-.5 1.5t-1.5.5h-4q-1 0-1.5-.5t-.5-1.5v-12q0-1 .5-1.5t1.5-.5h4zm224 0q1 0 1.5.5t.5 1.5v12q0 1-.5 1.5t-1.5.5h-4q-1 0-1.5-.5t-.5-1.5v-12q0-1 .5-1.5t1.5-.5h4zm-176-8q1 0 1.5.5t.5 1.5v12q0 1-.5 1.5t-1.5.5h-4q-1 0-1.5-.5t-.5-1.5v-12q0-1 .5-1.5t1.5-.5h4zm-32-24q1 0 1.5.5t.5 1.5v36q0 1-.5 1.5t-1.5.5h-4q-1 0-1.5-.5t-.5-1.5v-36q0-1 .5-1.5t1.5-.5h4zm128 24q1 0 1.5.5t.5 1.5v12q0 1-.5 1.5t-1.5.5h-4q-1 0-1.5-.5t-.5-1.5v-12q0-1 .5-1.5t1.5-.5h4zm-224-24q1 0 1.5.5t.5 1.5v36q0 1-.5 1.5t-1.5.5h-4q-1 0-1.5-.5t-.5-1.5v-36q0-1 .5-1.5t1.5-.5h4zm320 0q1 0 1.5.5t.5 1.5v36q0 1-.5 1.5t-1.5.5h-4q-1 0-1.5-.5t-.5-1.5v-36q0-1 .5-1.5t1.5-.5h4zm-288 8q1 0 1.5.5t.5 1.5v28q0 1-.5 1.5t-1.5.5h-4q-1 0-1.5-.5t-.5-1.5v-28q0-1 .5-1.5t1.5-.5h4zm224 16q1 0 1.5.5t.5 1.5v12q0 1-.5 1.5t-1.5.5h-4q-1 0-1.5-.5t-.5-1.5v-12q0-1 .5-1.5t1.5-.5h4zm-288-16q1 0 1.5.5t.5 1.5v28q0 1-.5 1.5t-1.5.5h-4q-1 0-1.5-.5t-.5-1.5v-28q0-1 .5-1.5t1.5-.5h4zm416 16q1 0 1.5.5t.5 1.5v12q0 1-.5 1.5t-1.5.5h-4q-1 0-1.5-.5t-.5-1.5v-12q0-1 .5-1.5t1.5-.5h4zm-32 0q1 0 1.5.5t.5 1.5v12q0 1-.5 1.5t-1.5.5h-4q-1 0-1.5-.5t-.5-1.5v-12q0-1 .5-1.5t1.5-.5h4zm-160 0q1 0 1.5.5t.5 1.5v12q0 1-.5 1.5t-1.5.5h-4q-1 0-1.5-.5t-.5-1.5v-12q0-1 .5-1.5t1.5-.5h4zm224-8q1 0 1.5.5t.5 1.5v12q0 1-.5 1.5t-1.5.5h-4q-1 0-1.5-.5t-.5-1.5v-12q0-1 .5-1.5t1.5-.5h4zm-304-8q1 0 1.5.5t.5 1.5v12q0 1-.5 1.5t-1.5.5h-4q-1 0-1.5-.5t-.5-1.5v-12q0-1 .5-1.5t1.5-.5h4zm-96-24q1 0 1.5.5t.5 1.5v36q0 1-.5 1.5t-1.5.5h-4q-1 0-1.5-.5t-.5-1.5v-36q0-1 .5-1.5t1.5-.5h4zm352 0q1 0 1.5.5t.5 1.5v36q0 1-.5 1.5t-1.5.5h-4q-1 0-1.5-.5t-.5-1.5v-36q0-1 .5-1.5t1.5-.5h4zm-224 0q1 0 1.5.5t.5 1.5v36q0 1-.5 1.5t-1.5.5h-4q-1 0-1.5-.5t-.5-1.5v-36q0-1 .5-1.5t1.5-.5h4zm128 0q1 0 1.5.5t.5 1.5v36q0 1-.5 1.5t-1.5.5h-4q-1 0-1.5-.5t-.5-1.5v-36q0-1 .5-1.5t1.5-.5h4zm-96 24q1 0 1.5.5t.5 1.5v12q0 1-.5 1.5t-1.5.5h-4q-1 0-1.5-.5t-.5-1.5v-12q0-1 .5-1.5t1.5-.5h4zm-128-8q1 0 1.5.5t.5 1.5v20q0 1-.5 1.5t-1.5.5h-4q-1 0-1.5-.5t-.5-1.5v-20q0-1 .5-1.5t1.5-.5h4zm-64 8q1 0 1.5.5t.5 1.5v12q0 1-.5 1.5t-1.5.5h-4q-1 0-1.5-.5t-.5-1.5v-12q0-1 .5-1.5t1.5-.5h4zm256-16q1 0 1.5.5t.5 1.5v28q0 1-.5 1.5t-1.5.5h-4q-1 0-1.5-.5t-.5-1.5v-28q0-1 .5-1.5t1.5-.5h4zm-160-8q1 0 1.5.5t.5 1.5v36q0 1-.5 1.5t-1.5.5h-4q-1 0-1.5-.5t-.5-1.5v-36q0-1 .5-1.5t1.5-.5h4zm224 24q1 0 1.5.5t.5 1.5v12q0 1-.5 1.5t-1.5.5h-4q-1 0-1.5-.5t-.5-1.5v-12q0-1 .5-1.5t1.5-.5h4zm48-8q1 0 1.5.5t.5 1.5v12q0 1-.5 1.5t-1.5.5h-4q-1 0-1.5-.5t-.5-1.5v-12q0-1 .5-1.5t1.5-.5h4zm-64 0q1 0 1.5.5t.5 1.5v12q0 1-.5 1.5t-1.5.5h-4q-1 0-1.5-.5t-.5-1.5v-12q0-1 .5-1.5t1.5-.5h4zm-160-24q1 0 1.5.5t.5 1.5v36q0 1-.5 1.5t-1.5.5h-4q-1 0-1.5-.5t-.5-1.5v-36q0-1 .5-1.5t1.5-.5h4zm128 24q1 0 1.5.5t.5 1.5v12q0 1-.5 1.5t-1.5.5h-4q-1 0-1.5-.5t-.5-1.5v-12q0-1 .5-1.5t1.5-.5h4zm-96 0q1 0 1.5.5t.5 1.5v12q0 1-.5 1.5t-1.5.5h-4q-1 0-1.5-.5t-.5-1.5v-12q0-1 .5-1.5t1.5-.5h4zm224-32q1 0 1.5.5t.5 1.5v44q0 1-.5 1.5t-1.5.5h-4q-1 0-1.5-.5t-.5-1.5v-44q0-1 .5-1.5t1.5-.5h4zm-160 32q1 0 1.5.5t.5 1.5v12q0 1-.5 1.5t-1.5.5h-4q-1 0-1.5-.5t-.5-1.5v-12q0-1 .5-1.5t1.5-.5h4zm-32-24q1 0 1.5.5t.5 1.5v36q0 1-.5 1.5t-1.5.5h-4q-1 0-1.5-.5t-.5-1.5v-36q0-1 .5-1.5t1.5-.5h4zm224 16q1 0 1.5.5t.5 1.5v12q0 1-.5 1.5t-1.5.5h-4q-1 0-1.5-.5t-.5-1.5v-12q0-1 .5-1.5t1.5-.5h4zm-352 0q1 0 1.5.5t.5 1.5v12q0 1-.5 1.5t-1.5.5h-4q-1 0-1.5-.5t-.5-1.5v-12q0-1 .5-1.5t1.5-.5h4zm-96-48q1 0 1.5.5t.5 1.5v52q0 1-.5 1.5t-1.5.5h-4q-1 0-1.5-.5t-.5-1.5v-52q0-1 .5-1.5t1.5-.5h4zm432 40q1 0 1.5.5t.5 1.5v12q0 1-.5 1.5t-1.5.5h-4q-1 0-1.5-.5t-.5-1.5v-12q0-1 .5-1.5t1.5-.5h4zm-224 0q1 0 1.5.5t.5 1.5v12q0 1-.5 1.5t-1.5.5h-4q-1 0-1.5-.5t-.5-1.5v-12q0-1 .5-1.5t1.5-.5h4zm128-24q1 0 1.5.5t.5 1.5v36q0 1-.5 1.5t-1.5.5h-4q-1 0-1.5-.5t-.5-1.5v-36q0-1 .5-1.5t1.5-.5h4zm32 24q1 0 1.5.5t.5 1.5v12q0 1-.5 1.5t-1.5.5h-4q-1 0-1.5-.5t-.5-1.5v-12q0-1 .5-1.5t1.5-.5h4zm-352 0q1 0 1.5.5t.5 1.5v12q0 1-.5 1.5t-1.5.5h-4q-1 0-1.5-.5t-.5-1.5v-12q0-1 .5-1.5t1.5-.5h4zm48-24q1 0 1.5.5t.5 1.5v36q0 1-.5 1.5t-1.5.5h-4q-1 0-1.5-.5t-.5-1.5v-36q0-1 .5-1.5t1.5-.5h4zm80 24q1 0 1.5.5t.5 1.5v12q0 1-.5 1.5t-1.5.5h-4q-1 0-1.5-.5t-.5-1.5v-12q0-1 .5-1.5t1.5-.5h4zm98-40v54q0 1-.5 1.5t-1.5.5h-4q-1 0-1.5-.5t-.5-1.5v-54h8zm110-24q1 0 1.5.5t.5 1.5v68q0 1-.5 1.5t-1.5.5h-4q-1 0-1.5-.5t-.5-1.5v-68q0-1 .5-1.5t1.5-.5h4zm32 32q1 0 1.5.5t.5 1.5v36q0 1-.5 1.5t-1.5.5h-4q-1 0-1.5-.5t-.5-1.5v-36q0-1 .5-1.5t1.5-.5h4zm-256 24q1 0 1.5.5t.5 1.5v12q0 1-.5 1.5t-1.5.5h-4q-1 0-1.5-.5t-.5-1.5v-12q0-1 .5-1.5t1.5-.5h4zm128-16q1 0 1.5.5t.5 1.5v28q0 1-.5 1.5t-1.5.5h-4q-1 0-1.5-.5t-.5-1.5v-28q0-1 .5-1.5t1.5-.5h4zm-176-8q1 0 1.5.5t.5 1.5v36q0 1-.5 1.5t-1.5.5h-4q-1 0-1.5-.5t-.5-1.5v-36q0-1 .5-1.5t1.5-.5h4zm112 24q1 0 1.5.5t.5 1.5v12q0 1-.5 1.5t-1.5.5h-4q-1 0-1.5-.5t-.5-1.5v-12q0-1 .5-1.5t1.5-.5h4zm96 0q1 0 1.5.5t.5 1.5v12q0 1-.5 1.5t-1.5.5h-4q-1 0-1.5-.5t-.5-1.5v-12q0-1 .5-1.5t1.5-.5h4zm32 0q1 0 1.5.5t.5 1.5v12q0 1-.5 1.5t-1.5.5h-4q-1 0-1.5-.5t-.5-1.5v-12q0-1 .5-1.5t1.5-.5h4zm-288 0q1 0 1.5.5t.5 1.5v12q0 1-.5 1.5t-1.5.5h-4q-1 0-1.5-.5t-.5-1.5v-12q0-1 .5-1.5t1.5-.5h4zm240-8q1 0 1.5.5t.5 1.5v12q0 1-.5 1.5t-1.5.5h-4q-1 0-1.5-.5t-.5-1.5v-12q0-1 .5-1.5t1.5-.5h4zm176-24q1 0 1.5.5t.5 1.5v36q0 1-.5 1.5t-1.5.5h-4q-1 0-1.5-.5t-.5-1.5v-36q0-1 .5-1.5t1.5-.5h4zm-352 24q1 0 1.5.5t.5 1.5v12q0 1-.5 1.5t-1.5.5h-4q-1 0-1.5-.5t-.5-1.5v-12q0-1 .5-1.5t1.5-.5h4zm114-24v30q0 1-.5 1.5t-1.5.5h-4q-1 0-1.5-.5t-.5-1.5v-30h8zm222-32q1 0 1.5.5t.5 1.5v60q0 1-.5 1.5t-1.5.5h-4q-1 0-1.5-.5t-.5-1.5v-60q0-1 .5-1.5t1.5-.5h4zm-32 48q1 0 1.5.5t.5 1.5v12q0 1-.5 1.5t-1.5.5h-4q-1 0-1.5-.5t-.5-1.5v-12q0-1 .5-1.5t1.5-.5h4zm-256-24q1 0 1.5.5t.5 1.5v36q0 1-.5 1.5t-1.5.5h-4q-1 0-1.5-.5t-.5-1.5v-36q0-1 .5-1.5t1.5-.5h4zm224 24q1 0 1.5.5t.5 1.5v12q0 1-.5 1.5t-1.5.5h-4q-1 0-1.5-.5t-.5-1.5v-12q0-1 .5-1.5t1.5-.5h4zm-320-16q1 0 1.5.5t.5 1.5v28q0 1-.5 1.5t-1.5.5h-4q-1 0-1.5-.5t-.5-1.5v-28q0-1 .5-1.5t1.5-.5h4zm128 16q1 0 1.5.5t.5 1.5v12q0 1-.5 1.5t-1.5.5h-4q-1 0-1.5-.5t-.5-1.5v-12q0-1 .5-1.5t1.5-.5h4zm-160-24q1 0 1.5.5t.5 1.5v36q0 1-.5 1.5t-1.5.5h-4q-1 0-1.5-.5t-.5-1.5v-36q0-1 .5-1.5t1.5-.5h4zm288 8q1 0 1.5.5t.5 1.5v28q0 1-.5 1.5t-1.5.5h-4q-1 0-1.5-.5t-.5-1.5v-28q0-1 .5-1.5t1.5-.5h4zm-192-16q1 0 1.5.5t.5 1.5v44q0 1-.5 1.5t-1.5.5h-4q-1 0-1.5-.5t-.5-1.5v-44q0-1 .5-1.5t1.5-.5h4zm178 16v22q0 1-.5 1.5t-1.5.5h-4q-1 0-1.5-.5t-.5-1.5v-22h8zm-66 8q1 0 1.5.5t.5 1.5v12q0 1-.5 1.5t-1.5.5h-4q-1 0-1.5-.5t-.5-1.5v-12q0-1 .5-1.5t1.5-.5h4zm-64 0q1 0 1.5.5t.5 1.5v12q0 1-.5 1.5t-1.5.5h-4q-1 0-1.5-.5t-.5-1.5v-12q0-1 .5-1.5t1.5-.5h4zm-128-24q1 0 1.5.5t.5 1.5v36q0 1-.5 1.5t-1.5.5h-4q-1 0-1.5-.5t-.5-1.5v-36q0-1 .5-1.5t1.5-.5h4zm96 24q1 0 1.5.5t.5 1.5v12q0 1-.5 1.5t-1.5.5h-4q-1 0-1.5-.5t-.5-1.5v-12q0-1 .5-1.5t1.5-.5h4zm192 0q1 0 1.5.5t.5 1.5v12q0 1-.5 1.5t-1.5.5h-4q-1 0-1.5-.5t-.5-1.5v-12q0-1 .5-1.5t1.5-.5h4zm-126-8v22q0 1-.5 1.5t-1.5.5h-4q-1 0-1.5-.5t-.5-1.5v-22h8zm80 0v14q0 1-.5 1.5t-1.5.5h-4q-1 0-1.5-.5t-.5-1.5v-14h8zm-178 0q1 0 1.5.5t.5 1.5v12q0 1-.5 1.5t-1.5.5h-4q-1 0-1.5-.5t-.5-1.5v-12q0-1 .5-1.5t1.5-.5h4zm320 0q1 0 1.5.5t.5 1.5v12q0 1-.5 1.5t-1.5.5h-4q-1 0-1.5-.5t-.5-1.5v-12q0-1 .5-1.5t1.5-.5h4zm-16-56q1 0 1.5.5t.5 1.5v60q0 1-.5 1.5t-1.5.5h-4q-1 0-1.5-.5t-.5-1.5v-60q0-1 .5-1.5t1.5-.5h4zm-222 56v6q0 1-.5 1.5t-1.5.5h-4q-1 0-1.5-.5t-.5-1.5v-6h8zm-114-8q1 0 1.5.5t.5 1.5v12q0 1-.5 1.5t-1.5.5h-4q-1 0-1.5-.5t-.5-1.5v-12q0-1 .5-1.5t1.5-.5h4zm272 0q1 0 1.5.5t.5 1.5v12q0 1-.5 1.5t-1.5.5h-4q-1 0-1.5-.5t-.5-1.5v-12q0-1 .5-1.5t1.5-.5h4zm-78 8v6q0 1-.5 1.5t-1.5.5h-4q-1 0-1.5-.5t-.5-1.5v-6h8zm110-32q1 0 1.5.5t.5 1.5v36q0 1-.5 1.5t-1.5.5h-4q-1 0-1.5-.5t-.5-1.5v-36q0-1 .5-1.5t1.5-.5h4zm-240 8q1 0 1.5.5t.5 1.5v20q0 1-.5 1.5t-1.5.5h-4q-1 0-1.5-.5t-.5-1.5v-20q0-1 .5-1.5t1.5-.5h4zm-48-24q1 0 1.5.5t.5 1.5v44q0 1-.5 1.5t-1.5.5h-4q-1 0-1.5-.5t-.5-1.5v-44q0-1 .5-1.5t1.5-.5h4zm304 32q1 0 1.5.5t.5 1.5v12q0 1-.5 1.5t-1.5.5h-4q-1 0-1.5-.5t-.5-1.5v-12q0-1 .5-1.5t1.5-.5h4zm-64-32q1 0 1.5.5t.5 1.5v44q0 1-.5 1.5t-1.5.5h-4q-1 0-1.5-.5t-.5-1.5v-44q0-1 .5-1.5t1.5-.5h4zm-26 4v40H436v-40h144zm122 20q1 0 1.5.5t.5 1.5v12q0 1-.5 1.5t-1.5.5h-4q-1 0-1.5-.5t-.5-1.5v-12q0-1 .5-1.5t1.5-.5h4zm-112-32q1 0 1.5.5t.5 1.5v44q0 1-.5 1.5t-1.5.5h-4q-1 0-1.5-.5t-.5-1.5v-44q0-1 .5-1.5t1.5-.5h4zm144 8q1 0 1.5.5t.5 1.5v36q0 1-.5 1.5t-1.5.5h-4q-1 0-1.5-.5t-.5-1.5v-36q0-1 .5-1.5t1.5-.5h4zm-352 24q1 0 1.5.5t.5 1.5v12q0 1-.5 1.5t-1.5.5h-4q-1 0-1.5-.5t-.5-1.5v-12q0-1 .5-1.5t1.5-.5h4zm-96-24q1 0 1.5.5t.5 1.5v36q0 1-.5 1.5t-1.5.5h-4q-1 0-1.5-.5t-.5-1.5v-36q0-1 .5-1.5t1.5-.5h4zm48 0q1 0 1.5.5t.5 1.5v36q0 1-.5 1.5t-1.5.5h-4q-1 0-1.5-.5t-.5-1.5v-36q0-1 .5-1.5t1.5-.5h4zm237 13H445v22h126v-22zm-221-21q1 0 1.5.5t.5 1.5v36q0 1-.5 1.5t-1.5.5h-4q-1 0-1.5-.5t-.5-1.5v-36q0-1 .5-1.5t1.5-.5h4zm-48 0q1 0 1.5.5t.5 1.5v36q0 1-.5 1.5t-1.5.5h-4q-1 0-1.5-.5t-.5-1.5v-36q0-1 .5-1.5t1.5-.5h4zm320 0q1 0 1.5.5t.5 1.5v36q0 1-.5 1.5t-1.5.5h-4q-1 0-1.5-.5t-.5-1.5v-36q0-1 .5-1.5t1.5-.5h4zm-192 0q1 0 1.5.5t.5 1.5v36q0 1-.5 1.5t-1.5.5h-4q-1 0-1.5-.5t-.5-1.5v-36q0-1 .5-1.5t1.5-.5h4zm98 25v14h-8v-14h8zm32 0v14h-8v-14h8zm-48 0v14h-8v-14h8zm-16 0v14h-8v-14h8zm-16 0v14h-8v-14h8zm-18 7q1 0 1.5.5t.5 1.5v5h-8v-5q0-1 .5-1.5t1.5-.5h4zm80 0q1 0 1.5.5t.5 1.5v5h-8v-5q0-1 .5-1.5t1.5-.5h4zm-144-40q1 0 1.5.5t.5 1.5v36q0 1-.5 1.5t-1.5.5h-4q-1 0-1.5-.5t-.5-1.5v-36q0-1 .5-1.5t1.5-.5h4zm272 16q1 0 1.5.5t.5 1.5v20q0 1-.5 1.5t-1.5.5h-4q-1 0-1.5-.5t-.5-1.5v-20q0-1 .5-1.5t1.5-.5h4zm-352 8q1 0 1.5.5t.5 1.5v12q0 1-.5 1.5t-1.5.5h-4q-1 0-1.5-.5t-.5-1.5v-12q0-1 .5-1.5t1.5-.5h4zm384-8q1 0 1.5.5t.5 1.5v12q0 1-.5 1.5t-1.5.5h-4q-1 0-1.5-.5t-.5-1.5v-12q0-1 .5-1.5t1.5-.5h4zm-320-24q1 0 1.5.5t.5 1.5v36q0 1-.5 1.5t-1.5.5h-4q-1 0-1.5-.5t-.5-1.5v-36q0-1 .5-1.5t1.5-.5h4zm32 24q1 0 1.5.5t.5 1.5v12q0 1-.5 1.5t-1.5.5h-4q-1 0-1.5-.5t-.5-1.5v-12q0-1 .5-1.5t1.5-.5h4zm224-24q1 0 1.5.5t.5 1.5v36q0 1-.5 1.5t-1.5.5h-4q-1 0-1.5-.5t-.5-1.5v-36q0-1 .5-1.5t1.5-.5h4zm80 16q1 0 1.5.5t.5 1.5v12q0 1-.5 1.5t-1.5.5h-4q-1 0-1.5-.5t-.5-1.5v-12q0-1 .5-1.5t1.5-.5h4zm-64 0q1 0 1.5.5t.5 1.5v12q0 1-.5 1.5t-1.5.5h-4q-1 0-1.5-.5t-.5-1.5v-12q0-1 .5-1.5t1.5-.5h4zm-192 0q1 0 1.5.5t.5 1.5v6h-8v-6q0-1 .5-1.5t1.5-.5h4zm32 0q1 0 1.5.5t.5 1.5v6h-8v-6q0-1 .5-1.5t1.5-.5h4zm32 0q1 0 1.5.5t.5 1.5v6h-8v-6q0-1 .5-1.5t1.5-.5h4zm32 0q1 0 1.5.5t.5 1.5v6h-8v-6q0-1 .5-1.5t1.5-.5h4zm-240-24q1 0 1.5.5t.5 1.5v28q0 1-.5 1.5t-1.5.5h-4q-1 0-1.5-.5t-.5-1.5v-28q0-1 .5-1.5t1.5-.5h4zm352-16q1 0 1.5.5t.5 1.5v36q0 1-.5 1.5t-1.5.5h-4q-1 0-1.5-.5t-.5-1.5v-36q0-1 .5-1.5t1.5-.5h4zm-384 0q1 0 1.5.5t.5 1.5v36q0 1-.5 1.5t-1.5.5h-4q-1 0-1.5-.5t-.5-1.5v-36q0-1 .5-1.5t1.5-.5h4zm320 0q1 0 1.5.5t.5 1.5v36q0 1-.5 1.5t-1.5.5h-4q-1 0-1.5-.5t-.5-1.5v-36q0-1 .5-1.5t1.5-.5h4zm-64 0q1 0 1.5.5t.5 1.5v36q0 1-.5 1.5t-1.5.5h-4q-1 0-1.5-.5t-.5-1.5v-36q0-1 .5-1.5t1.5-.5h4zm-128 0q1 0 1.5.5t.5 1.5v36q0 1-.5 1.5t-1.5.5h-4q-1 0-1.5-.5t-.5-1.5v-36q0-1 .5-1.5t1.5-.5h4zm288 0q1 0 1.5.5t.5 1.5v36q0 1-.5 1.5t-1.5.5h-4q-1 0-1.5-.5t-.5-1.5v-36q0-1 .5-1.5t1.5-.5h4zm-128 0q1 0 1.5.5t.5 1.5v36q0 1-.5 1.5t-1.5.5h-4q-1 0-1.5-.5t-.5-1.5v-36q0-1 .5-1.5t1.5-.5h4zm-208-8q1 0 1.5.5t.5 1.5v44q0 1-.5 1.5t-1.5.5h-4q-1 0-1.5-.5t-.5-1.5v-44q0-1 .5-1.5t1.5-.5h4zm80 8q1 0 1.5.5t.5 1.5v36q0 1-.5 1.5t-1.5.5h-4q-1 0-1.5-.5t-.5-1.5v-36q0-1 .5-1.5t1.5-.5h4zm64 0q1 0 1.5.5t.5 1.5v36q0 1-.5 1.5t-1.5.5h-4q-1 0-1.5-.5t-.5-1.5v-36q0-1 .5-1.5t1.5-.5h4zm-32 24q1 0 1.5.5t.5 1.5v12q0 1-.5 1.5t-1.5.5h-4q-1 0-1.5-.5t-.5-1.5v-12q0-1 .5-1.5t1.5-.5h4zm256-24q1 0 1.5.5t.5 1.5v36q0 1-.5 1.5t-1.5.5h-4q-1 0-1.5-.5t-.5-1.5v-36q0-1 .5-1.5t1.5-.5h4zm-400 24q1 0 1.5.5t.5 1.5v12q0 1-.5 1.5t-1.5.5h-4q-1 0-1.5-.5t-.5-1.5v-12q0-1 .5-1.5t1.5-.5h4zm352-56q1 0 1.5.5t.5 1.5v60q0 1-.5 1.5t-1.5.5h-4q-1 0-1.5-.5t-.5-1.5v-60q0-1 .5-1.5t1.5-.5h4zm-256 0q1 0 1.5.5t.5 1.5v60q0 1-.5 1.5t-1.5.5h-4q-1 0-1.5-.5t-.5-1.5v-60q0-1 .5-1.5t1.5-.5h4zm160 0q1 0 1.5.5t.5 1.5v60q0 1-.5 1.5t-1.5.5h-4q-1 0-1.5-.5t-.5-1.5v-60q0-1 .5-1.5t1.5-.5h4zm-64 0q1 0 1.5.5t.5 1.5v60q0 1-.5 1.5t-1.5.5h-4q-1 0-1.5-.5t-.5-1.5v-60q0-1 .5-1.5t1.5-.5h4zm192 0q1 0 1.5.5t.5 1.5v60q0 1-.5 1.5t-1.5.5h-4q-1 0-1.5-.5t-.5-1.5v-60q0-1 .5-1.5t1.5-.5h4zm-224 24q1 0 1.5.5t.5 1.5v36q0 1-.5 1.5t-1.5.5h-4q-1 0-1.5-.5t-.5-1.5v-36q0-1 .5-1.5t1.5-.5h4zm-192 0q1 0 1.5.5t.5 1.5v36q0 1-.5 1.5t-1.5.5h-4q-1 0-1.5-.5t-.5-1.5v-36q0-1 .5-1.5t1.5-.5h4zm48 8q1 0 1.5.5t.5 1.5v28q0 1-.5 1.5t-1.5.5h-4q-1 0-1.5-.5t-.5-1.5v-28q0-1 .5-1.5t1.5-.5h4zm304-8q1 0 1.5.5t.5 1.5v36q0 1-.5 1.5t-1.5.5h-4q-1 0-1.5-.5t-.5-1.5v-36q0-1 .5-1.5t1.5-.5h4zm-192 0q1 0 1.5.5t.5 1.5v36q0 1-.5 1.5t-1.5.5h-4q-1 0-1.5-.5t-.5-1.5v-36q0-1 .5-1.5t1.5-.5h4zm160 0q1 0 1.5.5t.5 1.5v36q0 1-.5 1.5t-1.5.5h-4q-1 0-1.5-.5t-.5-1.5v-36q0-1 .5-1.5t1.5-.5h4zm-64 0q1 0 1.5.5t.5 1.5v36q0 1-.5 1.5t-1.5.5h-4q-1 0-1.5-.5t-.5-1.5v-36q0-1 .5-1.5t1.5-.5h4zm-160 0q1 0 1.5.5t.5 1.5v28q0 1-.5 1.5t-1.5.5h-4q-1 0-1.5-.5t-.5-1.5v-28q0-1 .5-1.5t1.5-.5h4zm80-40q1 0 1.5.5t.5 1.5v60q0 1-.5 1.5t-1.5.5h-4q-1 0-1.5-.5t-.5-1.5v-60q0-1 .5-1.5t1.5-.5h4zm-96 0q1 0 1.5.5t.5 1.5v60q0 1-.5 1.5t-1.5.5h-4q-1 0-1.5-.5t-.5-1.5v-60q0-1 .5-1.5t1.5-.5h4zm256 0q1 0 1.5.5t.5 1.5v60q0 1-.5 1.5t-1.5.5h-4q-1 0-1.5-.5t-.5-1.5v-60q0-1 .5-1.5t1.5-.5h4zm-304 40q1 0 1.5.5t.5 1.5v20q0 1-.5 1.5t-1.5.5h-4q-1 0-1.5-.5t-.5-1.5v-20q0-1 .5-1.5t1.5-.5h4zm-16-40q1 0 1.5.5t.5 1.5v52q0 1-.5 1.5t-1.5.5h-4q-1 0-1.5-.5t-.5-1.5v-52q0-1 .5-1.5t1.5-.5h4zm224 0q1 0 1.5.5t.5 1.5v36q0 1-.5 1.5t-1.5.5h-4q-1 0-1.5-.5t-.5-1.5v-36q0-1 .5-1.5t1.5-.5h4zm-256 0q1 0 1.5.5t.5 1.5v36q0 1-.5 1.5t-1.5.5h-4q-1 0-1.5-.5t-.5-1.5v-36q0-1 .5-1.5t1.5-.5h4zm64 0q1 0 1.5.5t.5 1.5v36q0 1-.5 1.5t-1.5.5h-4q-1 0-1.5-.5t-.5-1.5v-36q0-1 .5-1.5t1.5-.5h4zm96 0q1 0 1.5.5t.5 1.5v36q0 1-.5 1.5t-1.5.5h-4q-1 0-1.5-.5t-.5-1.5v-36q0-1 .5-1.5t1.5-.5h4zm64 0q1 0 1.5.5t.5 1.5v36q0 1-.5 1.5t-1.5.5h-4q-1 0-1.5-.5t-.5-1.5v-36q0-1 .5-1.5t1.5-.5h4zm64 0q1 0 1.5.5t.5 1.5v36q0 1-.5 1.5t-1.5.5h-4q-1 0-1.5-.5t-.5-1.5v-36q0-1 .5-1.5t1.5-.5h4zm32 0q1 0 1.5.5t.5 1.5v36q0 1-.5 1.5t-1.5.5h-4q-1 0-1.5-.5t-.5-1.5v-36q0-1 .5-1.5t1.5-.5h4zm96 0q1 0 1.5.5t.5 1.5v36q0 1-.5 1.5t-1.5.5h-4q-1 0-1.5-.5t-.5-1.5v-36q0-1 .5-1.5t1.5-.5h4zm-32 0q1 0 1.5.5t.5 1.5v36q0 1-.5 1.5t-1.5.5h-4q-1 0-1.5-.5t-.5-1.5v-36q0-1 .5-1.5t1.5-.5h4zm64 0q1 0 1.5.5t.5 1.5v36q0 1-.5 1.5t-1.5.5h-4q-1 0-1.5-.5t-.5-1.5v-36q0-1 .5-1.5t1.5-.5h4zm-320 0q1 0 1.5.5t.5 1.5v36q0 1-.5 1.5t-1.5.5h-4q-1 0-1.5-.5t-.5-1.5v-36q0-1 .5-1.5t1.5-.5h4zm208 16q1 0 1.5.5t.5 1.5v12q0 1-.5 1.5t-1.5.5h-4q-1 0-1.5-.5t-.5-1.5v-12q0-1 .5-1.5t1.5-.5h4zm32 0q1 0 1.5.5t.5 1.5v12q0 1-.5 1.5t-1.5.5h-4q-1 0-1.5-.5t-.5-1.5v-12q0-1 .5-1.5t1.5-.5h4zm-352 0q1 0 1.5.5t.5 1.5v12q0 1-.5 1.5t-1.5.5h-4q-1 0-1.5-.5t-.5-1.5v-12q0-1 .5-1.5t1.5-.5h4zm32 0q1 0 1.5.5t.5 1.5v12q0 1-.5 1.5t-1.5.5h-4q-1 0-1.5-.5t-.5-1.5v-12q0-1 .5-1.5t1.5-.5h4zm32 0q1 0 1.5.5t.5 1.5v12q0 1-.5 1.5t-1.5.5h-4q-1 0-1.5-.5t-.5-1.5v-12q0-1 .5-1.5t1.5-.5h4zm32 0q1 0 1.5.5t.5 1.5v12q0 1-.5 1.5t-1.5.5h-4q-1 0-1.5-.5t-.5-1.5v-12q0-1 .5-1.5t1.5-.5h4zm64 0q1 0 1.5.5t.5 1.5v12q0 1-.5 1.5t-1.5.5h-4q-1 0-1.5-.5t-.5-1.5v-12q0-1 .5-1.5t1.5-.5h4zm32 0q1 0 1.5.5t.5 1.5v12q0 1-.5 1.5t-1.5.5h-4q-1 0-1.5-.5t-.5-1.5v-12q0-1 .5-1.5t1.5-.5h4zm64 0q1 0 1.5.5t.5 1.5v12q0 1-.5 1.5t-1.5.5h-4q-1 0-1.5-.5t-.5-1.5v-12q0-1 .5-1.5t1.5-.5h4zm118-104H356q-2 0-3 1t-1 3v24q0 2 1 3t3 1h320q2 0 3-1t1-3v-24q0-2-1-3t-3-1z"/></svg>
