<svg viewBox="-10 0 1044 1024"><path fill="currentColor" d="m784 96 160 336h80v496H0V432h80L256 96h528zm208 368H32v432h960V464zM64 496v368H48V496h16zm912 0v368h-16V496h16zm-756 64q48 0 82 34t34 82-34 82-82 34-82-34-34-82 34-82 82-34zm256 0q48 0 82 34t34 82-34 82-82 34-82-34-34-82 34-82 82-34zm256 0q48 0 82 34t34 82-34 82-82 34-82-34-34-82 34-82 82-34zm-512 16q-41 0-70.5 29.5T120 676t29.5 70.5T220 776t70.5-29.5T320 676t-29.5-70.5T220 576zm256 0q-41 0-70.5 29.5T376 676t29.5 70.5T476 776t70.5-29.5T576 676t-29.5-70.5T476 576zm256 0q-41 0-70.5 29.5T632 676t29.5 70.5T732 776t70.5-29.5T832 676t-29.5-70.5T732 576zm36-448H272L112 432h800zm96 384v328H88V512h776zm-520 8H96v312h248V520zm256 0H352v312h248V520zm256 0H608v312h248V520zM120 808q3 0 5.5 2.5t2.5 5.5-2.5 5.5-5.5 2.5-5.5-2.5-2.5-5.5 2.5-5.5 5.5-2.5zm200 0q3 0 5.5 2.5t2.5 5.5-2.5 5.5-5.5 2.5-5.5-2.5-2.5-5.5 2.5-5.5 5.5-2.5zm56 0q3 0 5.5 2.5t2.5 5.5-2.5 5.5-5.5 2.5-5.5-2.5-2.5-5.5 2.5-5.5 5.5-2.5zm200 0q3 0 5.5 2.5t2.5 5.5-2.5 5.5-5.5 2.5-5.5-2.5-2.5-5.5 2.5-5.5 5.5-2.5zm56 0q3 0 5.5 2.5t2.5 5.5-2.5 5.5-5.5 2.5-5.5-2.5-2.5-5.5 2.5-5.5 5.5-2.5zm200 0q3 0 5.5 2.5t2.5 5.5-2.5 5.5-5.5 2.5-5.5-2.5-2.5-5.5 2.5-5.5 5.5-2.5zm88-56v24h-24v-24h24zm-4-40v32h-16v-32h16zm-8-16q2 0 3 1t1 3-1 3-3 1-3-1-1-3 1-3 3-1zm0-16q2 0 3 1t1 3-1 3-3 1-3-1-1-3 1-3 3-1zm0-16q2 0 3 1t1 3-1 3-3 1-3-1-1-3 1-3 3-1zm0-16q2 0 3 1t1 3-1 3-3 1-3-1-1-3 1-3 3-1zm8-40v32h-16v-32h16zm4-32v24h-24v-24h24zm-800-48q3 0 5.5 2.5t2.5 5.5-2.5 5.5-5.5 2.5-5.5-2.5-2.5-5.5 2.5-5.5 5.5-2.5zm200 0q3 0 5.5 2.5t2.5 5.5-2.5 5.5-5.5 2.5-5.5-2.5-2.5-5.5 2.5-5.5 5.5-2.5zm56 0q3 0 5.5 2.5t2.5 5.5-2.5 5.5-5.5 2.5-5.5-2.5-2.5-5.5 2.5-5.5 5.5-2.5zm200 0q3 0 5.5 2.5t2.5 5.5-2.5 5.5-5.5 2.5-5.5-2.5-2.5-5.5 2.5-5.5 5.5-2.5zm56 0q3 0 5.5 2.5t2.5 5.5-2.5 5.5-5.5 2.5-5.5-2.5-2.5-5.5 2.5-5.5 5.5-2.5zm200 0q3 0 5.5 2.5t2.5 5.5-2.5 5.5-5.5 2.5-5.5-2.5-2.5-5.5 2.5-5.5 5.5-2.5z"/></svg>
