<svg viewBox="-10 0 1044 1024"><path fill="currentColor" d="M1024 496v368H0V496h1024zm-72 32H72v304h880V528zm48 32h-24v240h24V560zm-952 0H24v240h24V560zm560-16v272H88V544h520zm72 0v272h-64V544h64zm264 192v80H688v-80h256zM152 552H96v256h56V552zm64 0h-56v256h56V552zm64 0h-56v256h56V552zm64 0h-56v256h56V552zm64 0h-56v256h56V552zm64 0h-56v256h56V552zm64 0h-56v256h56V552zm64 0h-56v256h56V552zm72 0h-48v256h48V552zm264 192H696v64h240v-64zm-816 8v32h-16v-32h16zm256 0v32h-16v-32h16zm-192 0v32h-16v-32h16zm256 0v32h-16v-32h16zm-192 0v32h-16v-32h16zm256 0v32h-16v-32h16zm-192 0v32h-16v-32h16zm256 0v32h-16v-32h16zM248 560v184h-16V560h16zm256 0v184h-16V560h16zm-192 0v184h-16V560h16zm256 0v184h-16V560h16zm-192 0v184h-16V560h16zm64 0v184h-16V560h16zm-256 0v184h-16V560h16zm-64 0v184h-16V560h16zm824 88v80H688v-80h256zm-8 8H696v64h240v-64zm-24-56v40H688v-40h224zm-8 8H696v24h208v-24zm8-68v24h-80v-24h80zm-16 4q-3 0-5.5 2.5T888 552t2.5 5.5 5.5 2.5 5.5-2.5 2.5-5.5-2.5-5.5-5.5-2.5zm-175 0 1 5h-1q0-1-.5-1.5L719 546l-.5-.5-1.5-.5-.5.5-.5.5q-1 0-1 .5v1.5l1 1 1 1 2 1q1 0 1.5 1t1.5 1v4.5l-1 1.5q-1 0-1.5.5t-1.5.5h-3q0-1-.5-1h-.5v1h-1l-1-5h1q0 1 .5 1.5l.5.5 1.5 1.5 1.5.5 1.5-.5.5-.5.5-.5.5-1.5-.5-.5-.5-.5q0-1-.5-1h-.5l-1-1-2-1-.5-.5-.5-.5q-1-1-1-1.5v-3l1-1.5 1-.5 2-.5h2q0 1 .5 1h.5v-1h1zm97 3q2 0 4 2t2 4q0 3-2 5t-4 2q-3 0-5-2t-2-5q0-2 2-4t5-2zm-90 0v1h-2v8.5l1 .5q0 1 .5 1h3l1.5-1v-9h-2v-1h5v1h-1l-.5.5-.5.5v9q-1 1-2 1.5t-2 .5q-2 0-3-.5t-2-1.5v-10h-2v-1h6zm71 0v4h-1v-.5l-1-1.5-.5-.5-1.5-.5-2 .5-1 .5q-1 1-1 2v4.5l1 1.5 1.5 1h3.5q1 0 1-.5v-.5h2l-1.5 1.5-.5.5q-1 0-2 .5l-1 .5q-2 0-3-.5t-2-1.5-1.5-2-.5-3q0-1 .5-2t1.5-2 2-1.5 3-.5h4zm-28 0 4 9 4-9h4v1h-1v11h1v1h-5v-1q1 0 1-.5V550l-4 10-5-9v6l.5.5.5.5v1h1-5 1l.5-.5.5-.5v-10h-2v-1h4zm34 0h2q2 1 2.5 1.5t.5 1.5-.5 1.5-.5 1.5h-2v1l3 4h1v1h1v1h-4l-4-6v4.5l1 .5h-5q1 0 1-.5V548h-1v-1h5zm-45 0h3l1.5 1.5.5 1.5-.5 1.5-.5 1.5h-1l-1 1 3 4h1v1h1v1h-3l-5-6v4.5l1 .5h-5q1 0 1-.5V548h-1v-1h5zm29 0v1h-1v10.5l1 .5h-5q1 0 1-.5V548h-1v-1h5zm-49 0q2 0 2.5.5t1.5.5 1 1v3.5l-1 .5q-1 1-1.5 1H739v3q0 1 .5 1h.5v1h1-5l.5-.5.5-.5v-10h-1v-1h4zm14 0v3h-1v-1q0-1-.5-1H748v4h4v-1h1v4h-1v-1h-4v4h5l.5-.5.5-.5v-1h1l-1 3h-10 1l.5-.5.5-.5v-10h-2v-1h10zm126 1q-2 0-3 1t-1 3 1 3 3 1 3-1 1-3-1-3-3-1zm-140 0h-1v5h3q0-1 .5-1.5l.5-.5q0-1-.5-1.5l-.5-.5q-1-1-1.5-1h-.5zm64 0v5h1l1-1q1 0 1-.5v-2l-1-.5q0-1-.5-1H804zm-44 0h-1v5h1.5l.5-1q1 0 1-.5v-2l-1-.5q0-1-.5-1h-.5zm24-388 160 336H80l176-336h528zm-16 32H272L112 496h800z"/></svg>
