<svg viewBox="-10 0 1034 1024"><path fill="currentColor" d="M384 80v80h256V80h8v80h32v-24h-8v-32h8V88h48v848l-48 8v-16h-8v-32h8v-24h-32v80h32l48-8v52l-48 20H344l-48-20v-52l48 8h32v-80h-32v24h8v32h-8v16l-48-8V88h48v16h8v32h-8v24h32V80h8zm28 792h-28v80h256v-80h-28l-8 15q-2 4-5.5 6.5T590 896H434q-5 0-8.5-2.5T420 887l-8-15zm191 0H421l6 12q1 2 3 3t4 1h156q2 0 4-1t3-3l6-12zm-227-88h-32v24h8v32h-8v24h32v-80zm36 0h-28v80h256v-80h-28l-8 15q-2 4-5.5 6.5T590 808H434q-5 0-8.5-2.5T420 799l-8-15zm268 0h-32v80h32v-24h-8v-32h8v-24zm-77 0H421l6 12q1 2 3 3t4 1h156q2 0 4-1t3-3zm77-88h-32v80h32v-24h-8v-32h8v-24zm-268 0h-28v80h256v-80h-28l-8 15q-2 4-5.5 6.5T590 720H434q-5 0-8.5-2.5T420 711l-8-15zm-36 0h-32v24h8v32h-8v24h32v-80zm227 0H421l6 12q1 2 3 3t4 1h156q2 0 4-1t3-3l6-12zm77-88h-32v80h32v-24h-8v-32h8v-24zm-268 0h-28v80h256v-80h-28l-8 15q-2 4-5.5 6.5T590 632H434q-5 0-8.5-2.5T420 623l-8-15zm-36 0h-32v24h8v32h-8v24h32v-80zm227 0H421l6 12q1 2 3 3t4 1h156q2 0 4-1t3-3zm77-88h-32v80h32v-24h-8v-32h8v-24zm-268 0h-28v80h256v-80h-28l-8 15q-2 4-5.5 6.5T590 544H434q-5 0-8.5-2.5T420 535l-8-15zm-36 0h-32v24h8v32h-8v24h32v-80zm227 0H421l6 12q1 2 3 3t4 1h156q2 0 4-1t3-3zm77-88h-32v80h32v-24h-8v-32h8v-24zm-268 0h-28v80h256v-80h-28l-8 15q-2 4-5.5 6.5T590 456H434q-5 0-8.5-2.5T420 447l-8-15zm-36 0h-32v24h8v32h-8v24h32v-80zm227 0H421l6 12q1 2 3 3t4 1h156q2 0 4-1t3-3l6-12zm77-88h-32v80h32v-24h-8v-32h8v-24zm-304 0h-32v24h8v32h-8v24h32v-80zm36 0h-28v80h256v-80h-28l-8 15q-2 4-5.5 6.5T590 368H434q-5 0-8.5-2.5T420 359l-8-15zm191 0H421l6 12q1 2 3 3t4 1h156q2 0 4-1t3-3zm-191-88h-28v80h256v-80h-28l-8 15q-2 4-5.5 6.5T590 280H434q-5 0-8.5-2.5T420 271l-8-15zm-36 0h-32v24h8v32h-8v24h32v-80zm304 0h-32v80h32v-24h-8v-32h8v-24zm-77 0H421l6 12q1 2 3 3t4 1h156q2 0 4-1t3-3zm77-88h-32v80h32v-24h-8v-32h8v-24zm-268 0h-28v80h256v-80h-28l-8 15q-2 4-5.5 6.5T590 192H434q-5 0-8.5-2.5T420 183l-8-15zm-36 0h-32v24h8v32h-8v24h32v-80zm227 0H421l6 12q1 2 3 3t4 1h156q2 0 4-1t3-3l6-12zM408 24l16 12h176l16-12h64l48 12v44H612l-8 15q-2 4-5.5 6.5T590 104H434q-5 0-8.5-2.5T420 95l-8-15H296V36l48-12h64zm195 56H421l6 12q1 2 3 3t4 1h156q2 0 4-1t3-3zM536 8q3 0 5.5 2t2.5 5v1h56l8 8-12 8H428l-12-8 8-8h56q0-3 2.5-5.5T488 8h48z"/></svg>
